<svg 
 xmlns="http://www.w3.org/2000/svg"
 xmlns:xlink="http://www.w3.org/1999/xlink"
 width="213.5px" height="197.5px">
<path fill-rule="evenodd"  stroke="rgb(71, 84, 186)" stroke-width="9px" stroke-linecap="butt" stroke-linejoin="miter" fill="none"
 d="M104.500,34.482 C129.915,34.482 150.518,55.085 150.518,80.500 C150.518,105.915 129.915,126.518 104.500,126.518 C79.085,126.518 58.482,105.915 58.482,80.500 C58.482,55.085 79.085,34.482 104.500,34.482 Z"/>
<path fill-rule="evenodd"  stroke="rgb(71, 84, 186)" stroke-width="9px" stroke-linecap="round" stroke-linejoin="round" fill="none"
 d="M123.038,107.312 L104.546,99.603 L86.079,107.372 L87.594,87.153 L74.603,71.741 L94.031,66.954 L104.469,49.660 L114.961,66.920 L134.403,71.644 L121.460,87.099 L123.038,107.312 Z"/>
<path fill-rule="evenodd"  stroke="rgb(71, 84, 186)" stroke-width="9px" stroke-linecap="butt" stroke-linejoin="miter" fill="none"
 d="M158.394,125.438 C158.693,127.967 157.901,130.251 156.100,132.053 C154.299,133.855 152.015,134.648 149.484,134.350 L140.557,133.297 C136.963,132.874 133.671,134.775 132.243,138.099 L128.695,146.357 C127.689,148.697 125.861,150.280 123.400,150.940 C120.939,151.600 118.565,151.144 116.522,149.621 L109.317,144.247 C106.417,142.084 102.615,142.085 99.716,144.249 L92.513,149.627 C90.472,151.152 88.097,151.608 85.636,150.949 C83.175,150.291 81.346,148.709 80.339,146.369 L76.787,138.113 C75.357,134.790 72.064,132.891 68.471,133.316 L59.543,134.373 C57.013,134.672 54.729,133.881 52.926,132.080 C51.124,130.279 50.331,127.995 50.630,125.466 L51.682,116.540 C52.106,112.947 50.204,109.656 46.879,108.228 L38.620,104.681 C36.279,103.675 34.696,101.848 34.036,99.387 C33.376,96.927 33.831,94.553 35.355,92.511 L40.730,85.307 C42.894,82.407 42.893,78.607 40.728,75.708 L35.348,68.507 C33.824,66.466 33.367,64.092 34.026,61.631 C34.685,59.171 36.267,57.342 38.607,56.336 L46.865,52.784 C50.189,51.354 52.089,48.062 51.663,44.470 L50.606,35.544 C50.307,33.015 51.099,30.731 52.900,28.929 C54.701,27.127 56.985,26.334 59.516,26.633 L68.443,27.685 C72.037,28.108 75.329,26.207 76.757,22.883 L80.305,14.625 C81.311,12.285 83.139,10.703 85.600,10.043 C88.061,9.383 90.435,9.838 92.478,11.361 L99.683,16.735 C102.583,18.898 106.385,18.897 109.284,16.733 L116.487,11.355 C118.528,9.831 120.903,9.374 123.364,10.033 C125.825,10.691 127.654,12.273 128.661,14.613 L132.213,22.869 C133.643,26.192 136.936,28.092 140.529,27.666 L149.457,26.609 C151.987,26.310 154.271,27.101 156.074,28.902 C157.876,30.703 158.669,32.987 158.370,35.517 L157.318,44.443 C156.894,48.035 158.796,51.326 162.121,52.754 L170.380,56.301 C172.721,57.307 174.304,59.134 174.964,61.595 C175.624,64.055 175.169,66.429 173.645,68.471 L168.270,75.675 C166.106,78.575 166.107,82.375 168.272,85.274 L173.652,92.475 C175.176,94.516 175.633,96.890 174.974,99.351 C174.315,101.812 172.733,103.640 170.393,104.647 L162.135,108.198 C158.811,109.628 156.911,112.920 157.337,116.512 L158.394,125.438 Z"/>
<path fill-rule="evenodd"  stroke="rgb(71, 84, 186)" stroke-width="9px" stroke-linecap="round" stroke-linejoin="round" fill="none"
 d="M83.456,149.741 C71.378,166.989 59.989,183.255 59.989,183.255 L44.916,150.734 L9.201,147.693 C9.201,147.693 25.177,124.877 39.351,104.635 "/>
<path fill-rule="evenodd"  stroke="rgb(71, 84, 186)" stroke-width="9px" stroke-linecap="round" stroke-linejoin="round" fill="none"
 d="M168.942,103.614 C183.287,124.102 199.805,147.691 199.805,147.691 L164.090,150.732 L149.017,183.253 C149.017,183.253 137.313,166.537 125.052,149.026 "/>
</svg>