<?xml version="1.0" encoding="UTF-8"?>
<svg width="1761px" height="370px" viewBox="0 0 1761 370" version="1.1" xmlns="http://www.w3.org/2000/svg" xmlns:xlink="http://www.w3.org/1999/xlink">
    <!-- Generator: Sketch 49.3 (51167) - http://www.bohemiancoding.com/sketch -->
    <title>Pixel @svg</title>
    <desc>Created with Sketch.</desc>
    <defs></defs>
    <g id="Pixel" stroke="none" stroke-width="1" fill="none" fill-rule="evenodd">
        <g id="coding" fill="#231F20" fill-rule="nonzero">
            <g id="Group" transform="translate(581.000000, 36.000000)">
                <g transform="translate(9.000000, 230.000000)" id="Shape">
                    <path d="M36.074662,15.1122568 C35.7676176,13.6077395 35.1934447,12.2014764 34.3552136,10.8965379 C33.5169825,9.58852896 32.4699613,8.45246487 31.2141499,7.48527517 C29.9583385,6.52115592 28.5121597,5.75968594 26.8786837,5.20700611 C25.2452078,4.65125584 23.4919846,4.37491593 21.6220845,4.37491593 C18.9661509,4.37491593 16.5589232,4.85083467 14.3942605,5.80267215 C12.2295979,6.75758007 10.3842613,8.16384318 8.86439181,10.0214615 C7.34452229,11.8790798 6.16854244,14.1972646 5.34566358,16.9790864 C4.51971429,19.7609082 4.10827486,22.9940852 4.10827486,26.6786174 C4.10827486,30.3631496 4.51971429,33.6147492 5.34566358,36.4272754 C6.16854244,39.2367312 7.34145185,41.5979023 8.86439181,43.4985068 C10.3873318,45.4052522 12.2173161,46.8514311 14.3543448,47.8309025 C16.4913734,48.8134444 18.8709671,49.3047154 21.4992667,49.3047154 C25.4662797,49.3047154 28.7332316,48.3313848 31.3031928,46.3785828 C33.873154,44.4257807 35.4636437,41.5794796 36.0808028,37.8304681 L39.5565449,37.8304681 C39.2218665,40.2284845 38.5371576,42.371654 37.5054886,44.2599768 C36.4738196,46.1482995 35.1719516,47.7387892 33.6090958,49.0283755 C32.0431697,50.3210322 30.2438898,51.3035741 28.2051153,51.9790717 C26.1663408,52.6576397 23.958692,52.992318 21.5852392,52.992318 C18.3428508,52.992318 15.4320704,52.3720884 12.8498275,51.1285588 C10.2675845,49.8850292 8.06607651,48.1225947 6.25144441,45.8504665 C4.43374187,43.5783383 3.03976053,40.8180096 2.06028906,37.5817622 C1.08388803,34.3393739 0.592617072,30.7101097 0.592617072,26.6816878 C0.592617072,22.6901113 1.08081759,19.0915515 2.06028906,15.8982903 C3.03976053,12.7050291 4.43988276,9.97540484 6.27293751,7.71862888 C8.10292183,5.46185292 10.3075002,3.72398191 12.8928137,2.51115673 C15.4750566,1.29833156 18.3735553,0.693454191 21.5883096,0.693454191 C23.792888,0.693454191 25.8961418,1.04348475 27.8950005,1.75275719 C29.8907888,2.45588875 31.6869982,3.45071244 33.2774879,4.72494648 C34.8679777,6.00225097 36.2097615,7.51905005 37.2997689,9.2876255 C38.3897763,11.0531305 39.1451054,12.9936508 39.5626857,15.1153272 L36.074662,15.1153272 L36.074662,15.1122568 Z"></path>
                    <polygon points="102.66644 52.0681145 75.6434671 52.0681145 75.6434671 1.60537591 78.9963914 1.60537591 78.9963914 48.3805119 102.66644 48.3805119"></polygon>
                    <path d="M156.896613,0.690383748 C160.025395,0.690383748 162.914682,1.301402 165.570616,2.53264984 C168.223479,3.76082723 170.504818,5.51405046 172.420775,7.78617863 C174.333662,10.0583068 175.828967,12.794072 176.903623,15.9904036 C177.978278,19.1867353 178.515606,22.7484497 178.515606,26.6786174 C178.515606,30.581151 177.984419,34.1428655 176.922045,37.3668311 C175.859672,40.5907968 174.373577,43.3664777 172.460691,45.6846625 C170.544734,48.0059178 168.269536,49.8051977 165.632025,51.0763613 C162.991443,52.3536658 160.080663,52.9892476 156.896613,52.9892476 C153.712563,52.9892476 150.792571,52.3536658 148.139708,51.0763613 C145.486845,49.8051977 143.202435,48.0120587 141.289549,45.7092261 C139.376662,43.4063935 137.890568,40.6429943 136.828194,37.4159582 C135.765821,34.1889221 135.234634,30.608785 135.234634,26.6786174 C135.234634,22.7177453 135.771962,19.1376082 136.846617,15.9412765 C137.921272,12.7480153 139.422719,10.0214615 141.350958,7.76161509 C143.279196,5.50790957 145.563606,3.76082723 148.201117,2.53264984 C150.841698,1.301402 153.740197,0.690383748 156.896613,0.690383748 Z M156.853627,49.3047154 C159.478856,49.3047154 161.901436,48.8042331 164.124437,47.8094094 C166.344368,46.8084448 168.263395,45.3407729 169.884589,43.4063935 C171.502713,41.4689436 172.761594,39.0985613 173.655094,36.2891055 C174.548593,33.4765793 174.996877,30.2741067 174.996877,26.6786174 C174.996877,23.0524236 174.542452,19.856092 173.636671,17.0926928 C172.73089,14.3292937 171.472008,12.0018975 169.866166,10.1135748 C168.260324,8.22525205 166.35972,6.79749583 164.167423,5.82723569 C161.975126,4.860046 159.580181,4.37491593 156.982585,4.37491593 C154.329722,4.37491593 151.89179,4.86618688 149.671859,5.84565835 C147.451929,6.82820027 145.529831,8.26823826 143.911707,10.156561 C142.290513,12.0448837 141.028561,14.3722799 140.11971,17.135679 C139.210859,19.8990782 138.759503,23.0800576 138.759503,26.6724765 C138.759503,30.2648954 139.204718,33.4704384 140.101287,36.2829646 C140.994786,39.0924204 142.244457,41.4658732 143.850299,43.4002526 C145.456141,45.334632 147.369027,46.7992335 149.588957,47.8032685 C151.805818,48.8042331 154.228398,49.3047154 156.853627,49.3047154 Z"></path>
                    <path d="M231.446981,52.9892476 C228.708145,52.9892476 226.371538,52.6729919 224.431017,52.0466214 C222.487427,51.4171805 220.875444,50.5635972 219.591998,49.4858716 C218.308553,48.4112163 217.289166,47.1523345 216.533837,45.7092261 C215.778508,44.2661176 215.207405,42.7278255 214.814388,41.1035609 C214.424442,39.4731554 214.178807,37.7844115 214.080552,36.0342587 C213.982298,34.2841059 213.933171,32.5769393 213.933171,30.9188998 L213.933171,1.60844635 L217.286095,1.60844635 L217.286095,30.7807299 C217.286095,34.6218547 217.599281,37.7475661 218.228722,40.1578643 C218.858162,42.5681624 219.779295,44.4503443 220.992121,45.8044098 C222.204946,47.1584754 223.68797,48.076538 225.431982,48.567809 C227.175994,49.0590799 229.180993,49.3047154 231.44391,49.3047154 C233.734461,49.3047154 235.767095,49.0590799 237.538741,48.567809 C239.310386,48.076538 240.793411,47.1461936 241.981672,45.7798463 C243.166863,44.4165694 244.069574,42.5313171 244.683663,40.1333007 C245.297751,37.7414252 245.604796,34.6218547 245.604796,30.7807299 L245.604796,1.60844635 L248.95772,1.60844635 L248.95772,30.9188998 C248.95772,34.3915714 248.690591,37.4957898 248.162475,40.2284845 C247.631288,42.9642496 246.710155,45.2732231 245.396005,47.1615459 C244.081856,49.0498686 242.294858,50.4960475 240.031941,51.4939416 C237.769024,52.4918357 234.910441,52.9892476 231.446981,52.9892476 Z"></path>
                    <path d="M323.680032,26.4483341 C323.680032,43.5292112 315.954797,52.071185 300.510466,52.071185 L286.641273,52.071185 L286.641273,1.65757344 L300.510466,1.65757344 C308.247984,1.65757344 314.044981,3.70862969 317.898387,7.81074218 C321.751794,11.9128547 323.680032,18.1243618 323.680032,26.4483341 Z M320.121388,26.4483341 C320.121388,23.1322552 319.820485,20.1662068 319.221749,17.5563298 C318.619942,14.9464528 317.56678,12.7265222 316.059192,10.8996083 C314.551604,9.06962401 312.534323,7.67871311 310.004277,6.72687563 C307.477302,5.77503815 304.284041,5.29911941 300.430634,5.29911941 L290.000338,5.29911941 L290.000338,48.3866528 L300.430634,48.3866528 C304.259477,48.3866528 307.434316,47.8953818 309.961291,46.9128399 C312.488266,45.930298 314.505547,44.4933305 316.016206,42.6050077 C317.523793,40.7136145 318.586167,38.4199933 319.200255,35.7149325 C319.811274,33.0068014 320.121388,29.9210057 320.121388,26.4483341 Z"></path>
                    <path d="M459.875694,26.4483341 C459.875694,43.5292112 452.150458,52.071185 436.709198,52.071185 L422.840005,52.071185 L422.840005,1.65757344 L436.709198,1.65757344 C444.446716,1.65757344 450.240642,3.70862969 454.094049,7.81074218 C457.950526,11.9097842 459.875694,18.1243618 459.875694,26.4483341 Z M456.31398,26.4483341 C456.31398,23.1322552 456.013076,20.1662068 455.41434,17.5563298 C454.815603,14.9464528 453.759371,12.7265222 452.254853,10.8996083 C450.747266,9.06962401 448.729984,7.67871311 446.199939,6.72687563 C443.672964,5.77503815 440.479703,5.29911941 436.626296,5.29911941 L426.195999,5.29911941 L426.195999,48.3866528 L436.626296,48.3866528 C440.452069,48.3866528 443.629978,47.8953818 446.156953,46.9128399 C448.683928,45.930298 450.701209,44.4933305 452.211867,42.6050077 C453.716384,40.7136145 454.778758,38.4199933 455.395917,35.7149325 C456.006935,33.0068014 456.31398,29.9210057 456.31398,26.4483341 Z"></path>
                    <polygon points="528.816362 52.0681145 495.673995 52.0681145 495.673995 1.60537591 527.683368 1.60537591 527.683368 5.29297853 499.026919 5.29297853 499.026919 23.955134 525.881018 23.955134 525.881018 27.6427366 499.026919 27.6427366 499.026919 48.3805119 528.816362 48.3805119"></polygon>
                    <polygon points="600.643246 1.60844635 582.66887 52.071185 578.354897 52.071185 560.380521 1.60844635 564.111109 1.60844635 580.534912 47.4624493 596.958714 1.60844635 600.643246 1.60844635"></polygon>
                    <polygon points="667.195108 52.0681145 634.052741 52.0681145 634.052741 1.60537591 666.062115 1.60537591 666.062115 5.29297853 637.405666 5.29297853 637.405666 23.955134 664.259764 23.955134 664.259764 27.6427366 637.405666 27.6427366 637.405666 48.3805119 667.195108 48.3805119"></polygon>
                    <polygon points="730.344919 52.0681145 703.321946 52.0681145 703.321946 1.60537591 706.674871 1.60537591 706.674871 48.3805119 730.344919 48.3805119"></polygon>
                    <path d="M784.575092,0.690383748 C787.706945,0.690383748 790.596232,1.301402 793.249095,2.53264984 C795.901958,3.76389767 798.183298,5.51405046 800.096184,7.78617863 C802.00907,10.0583068 803.504376,12.794072 804.579032,15.9904036 C805.656757,19.1867353 806.191014,22.7484497 806.191014,26.6786174 C806.191014,30.581151 805.659828,34.1428655 804.597454,37.3668311 C803.535081,40.5907968 802.048986,43.3664777 800.1361,45.6846625 C798.223214,48.0059178 795.948015,49.8051977 793.307434,51.0763613 C790.669923,52.3536658 787.753001,52.9892476 784.568951,52.9892476 C781.387972,52.9892476 778.46798,52.3536658 775.812047,51.0763613 C773.159183,49.8051977 770.877844,48.0120587 768.964958,45.7092261 C767.049001,43.4063935 765.562906,40.6429943 764.503603,37.4159582 C763.438159,34.1889221 762.910043,30.608785 762.910043,26.6786174 C762.910043,22.7177453 763.447371,19.1376082 764.522026,15.9412765 C765.596681,12.7480153 767.098128,10.0214615 769.026366,7.76161509 C770.951535,5.50790957 773.235944,3.76082723 775.873455,2.53264984 C778.510966,1.30447244 781.421747,0.690383748 784.575092,0.690383748 Z M784.538247,49.3047154 C787.160406,49.3047154 789.586056,48.8042331 791.805987,47.8094094 C794.025917,46.8084448 795.948015,45.3407729 797.566139,43.4063935 C799.184262,41.4689436 800.443144,39.0985613 801.339714,36.2891055 C802.233213,33.4765793 802.681497,30.2741067 802.681497,26.6786174 C802.681497,23.0524236 802.227072,19.856092 801.321291,17.0926928 C800.41244,14.3292937 799.156628,12.0018975 797.547716,10.1135748 C795.938804,8.22525205 794.04127,6.79749583 791.852043,5.82723569 C789.656676,4.860046 787.264801,4.37491593 784.664135,4.37491593 C782.011272,4.37491593 779.57641,4.86618688 777.353409,5.84565835 C775.133479,6.82820027 773.211381,8.26823826 771.593257,10.156561 C769.975134,12.0448837 768.710111,14.3722799 767.80126,17.135679 C766.895479,19.8990782 766.441053,23.0800576 766.441053,26.6724765 C766.441053,30.2648954 766.889338,33.4704384 767.782837,36.2829646 C768.676336,39.0924204 769.926006,41.4658732 771.534919,43.4002526 C773.140761,45.334632 775.053647,46.7992335 777.273578,47.8032685 C779.487367,48.8042331 781.909947,49.3047154 784.538247,49.3047154 Z"></path>
                    <path d="M841.614721,1.60844635 L858.290299,1.60844635 C860.525582,1.60844635 862.677963,1.81109562 864.744372,2.20718283 C866.81078,2.60941092 868.634623,3.33710603 870.209761,4.39640903 C871.791039,5.45878248 873.046851,6.89267958 873.983336,8.70731168 C874.919821,10.5188733 875.386529,12.8217059 875.386529,15.6158095 C875.386529,20.562294 873.967984,24.3297281 871.133964,26.9089006 C868.296875,29.4880732 864.157917,30.7807299 858.71095,30.7807299 L844.967645,30.7807299 L844.967645,52.071185 L841.614721,52.071185 L841.614721,1.60844635 Z M844.967645,27.0961977 L858.836838,27.0961977 C861.182657,27.0961977 863.178445,26.8505622 864.827274,26.3592913 C866.476102,25.8680203 867.824026,25.1433956 868.867977,24.1915582 C869.918069,23.2397207 870.676468,22.0668113 871.152387,20.6697595 C871.625235,19.2727077 871.86166,17.6515135 871.86166,15.806177 C871.86166,13.5647533 871.508559,11.7531916 870.793145,10.3684216 C870.083873,8.98979248 869.116683,7.92127815 867.903858,7.16594905 C866.687962,6.41676084 865.28477,5.91627855 863.69428,5.67064308 C862.10379,5.4250076 860.427328,5.30218986 858.664893,5.30218986 L844.964575,5.30218986 L844.964575,27.0961977 L844.967645,27.0961977 Z"></path>
                    <polygon points="953.498611 52.0681145 950.148757 52.0681145 950.148757 7.64493823 933.638982 52.0681145 930.120254 52.0681145 913.653466 7.64493823 913.653466 52.0681145 910.300542 52.0681145 910.300542 1.60537591 915.161054 1.60537591 931.876548 47.4593789 948.71793 1.60537591 953.49554 1.60537591 953.49554 52.0681145"></polygon>
                    <polygon points="1024.03284 52.0681145 990.890472 52.0681145 990.890472 1.60537591 1022.89984 1.60537591 1022.89984 5.29297853 994.243396 5.29297853 994.243396 23.955134 1021.09749 23.955134 1021.09749 27.6427366 994.243396 27.6427366 994.243396 48.3805119 1024.03284 48.3805119"></polygon>
                    <polygon points="1095.39916 52.0681145 1090.99921 52.0681145 1063.01212 5.98382831 1063.01212 52.0681145 1059.65919 52.0681145 1059.65919 1.60537591 1064.26793 1.60537591 1092.04623 47.5975488 1092.04623 1.60537591 1095.39916 1.60537591"></polygon>
                    <polygon points="1164.33675 5.29604897 1148.28755 5.29604897 1148.28755 52.0681145 1144.93462 52.0681145 1144.93462 5.29604897 1129.05736 5.29604897 1129.05736 1.60844635 1164.33368 1.60844635 1164.33368 5.29604897"></polygon>
                </g>
                <g>
                    <path d="M149.555713,162.044479 L148.70827,162.802878 C148.588523,162.910344 136.389651,173.592417 109.348255,173.592417 C70.33213,173.592417 37.3739897,137.530058 37.3739897,94.8478232 C37.3739897,52.1625179 70.33213,16.1001592 109.348255,16.1001592 C129.039009,16.1001592 145.235599,23.2266585 158.853016,37.8849557 L163.992938,43.4148244 L163.992938,6.75372926 L162.009432,6.05366815 C161.404554,5.84487799 146.795384,0.870759551 109.348255,0.870759551 C49.0938725,0.870759551 0.0742422774,43.0279486 0.0742422774,94.8508937 C0.0742422774,151.064573 43.987725,188.827957 109.348255,188.827957 C147.691954,188.827957 162.838451,167.598911 163.464822,166.69313 L166.688787,162.038338 L149.555713,162.044479 Z" id="Shape"></path>
                    <polygon id="Shape" points="787.127161 188.824887 811.635441 188.824887 811.635441 67.7849344 787.127161 42.5919456"></polygon>
                    <path d="M318.436245,0.864618664 C264.596019,0.864618664 220.793072,43.0218077 220.793072,94.8447528 C220.793072,146.664627 264.596019,188.821816 318.436245,188.821816 C372.276472,188.821816 416.079418,146.664627 416.079418,94.8447528 C416.079418,43.0248781 372.276472,0.864618664 318.436245,0.864618664 Z M378.779671,94.8478232 C378.779671,138.270035 351.710641,173.592417 318.436245,173.592417 C285.161849,173.592417 258.092819,138.266964 258.092819,94.8478232 C258.092819,51.4286819 285.161849,16.1001592 318.436245,16.1001592 C351.710641,16.1001592 378.779671,51.4256115 378.779671,94.8478232 Z" id="Shape"></path>
                    <path d="M538.854171,0.873829995 C538.848031,0.873829995 538.838819,0.873829995 538.832678,0.873829995 C538.488789,0.84312556 530.266141,0.158416663 517.65583,0.158416663 C510.256061,0.158416663 502.883926,0.397911255 495.748215,0.870759551 C469.40074,2.61784189 453.305475,4.99743559 453.145812,5.02199914 L450.615767,5.39966369 L450.615767,18.9894465 L453.68314,18.8850515 C453.937986,18.8758401 479.428808,18.0099751 491.529426,18.0099751 C503.608551,18.0099751 522.792682,18.8758401 523.029106,18.8850515 C570.049877,20.3158781 598.921257,64.0942613 598.921257,94.8478232 C598.921257,138.270035 571.852228,173.592417 538.571691,173.592417 L510.1793,173.666107 L510.1793,43.3779791 L472.879552,43.3779791 L472.879552,188.824887 L538.580902,188.824887 C592.421128,188.824887 636.221005,146.667698 636.221005,94.8478232 C636.224075,43.031019 592.43341,0.873829995 538.854171,0.873829995 Z" id="Shape"></path>
                    <path d="M1142.00902,91.8817748 L1142.00902,169.345993 C1135.1343,171.237387 1118.61838,173.592417 1111.36599,173.592417 C1072.35294,173.592417 1039.39173,137.530058 1039.39173,94.8478232 C1039.39173,52.1625179 1072.35294,16.1001592 1111.36599,16.1001592 C1131.05675,16.1001592 1147.25334,23.2266585 1160.87075,37.8849557 L1166.01068,43.4148244 L1166.01068,6.75372926 L1164.02717,6.05366815 C1163.42229,5.84487799 1148.81312,0.870759551 1111.36599,0.870759551 C1051.11161,0.870759551 1002.09198,43.0279486 1002.09198,94.8508937 C1002.09198,151.064573 1046.00546,188.827957 1111.36599,188.827957 C1175.02857,188.827957 1179.14603,158.826654 1179.29034,157.54935 L1179.30877,91.8817748 L1142.00902,91.8817748 Z" id="Shape"></path>
                    <polygon id="Shape" points="920.977004 129.246002 818.534727 0.864618664 787.127161 0.864618664 787.127161 19.7171416 923.675923 186.469857 923.675923 188.824887 945.291846 188.824887 945.291846 0.864618664 920.977004 0.864618664"></polygon>
                    <rect id="Rectangle-path" x="693.02728" y="25.6246749" width="37.296677" height="10.7711157"></rect>
                    <rect id="Rectangle-path" x="693.02728" y="0.864618664" width="37.296677" height="7.47652988"></rect>
                    <rect id="Rectangle-path" x="693.02728" y="12.0809487" width="37.296677" height="9.32493686"></rect>
                    <rect id="Rectangle-path" x="693.02728" y="40.995315" width="37.296677" height="147.829572"></rect>
                </g>
            </g>
            <g id="Group">
                <ellipse id="Oval" cx="151.985907" cy="216.565394" rx="8.11825257" ry="9.74865806"></ellipse>
                <ellipse id="Oval" cx="344.794405" cy="216.565394" rx="8.11825257" ry="9.74865806"></ellipse>
                <path d="M461.667766,153.95291 C448.351252,153.95291 436.680497,162.3997 430.155804,175.06835 C407.956498,126.929937 361.777028,82.3317457 304.703624,63.9674233 C273.907076,51.6795085 252.281943,28.0954321 249.610657,0.53206094 C246.936301,28.0954321 225.311167,51.6795085 194.51769,63.9674233 C137.444286,82.3317457 91.2648162,126.929937 69.0655099,175.06835 C62.5408175,162.3997 50.8700618,153.95291 37.5535484,153.95291 C17.1043948,153.95291 0.524,173.861666 0.524,198.416002 C0.524,222.973409 17.1013244,242.882165 37.5535484,242.882165 C43.7742669,242.882165 49.6326731,241.030688 54.7787363,237.776017 C56.5381004,317.512364 143.050916,369.27083 249.613727,369.409 C356.176539,369.27083 442.689355,317.512364 444.448719,237.776017 C449.594782,241.030688 455.453188,242.882165 461.673907,242.882165 C482.12306,242.882165 498.703455,222.973409 498.703455,198.416002 C498.694244,173.861666 482.116919,153.95291 461.667766,153.95291 Z M54.3857196,212.31283 C52.6539894,218.714704 44.9410354,221.441258 37.1636021,218.40459 C29.3830983,215.367921 24.4796,207.719446 26.2113302,201.317572 C27.9430603,194.915697 35.6560143,192.189143 43.4365181,195.225812 C51.2139514,198.26248 56.1174497,205.910955 54.3857196,212.31283 Z M249.607587,347.212764 C164.138722,347.077665 94.9217144,306.799587 94.9217144,249.136658 C94.9217144,247.929974 94.9647006,246.732501 95.0230391,245.538099 C95.0414617,245.145082 95.0629548,244.752065 95.0905888,244.359048 C95.1427863,243.54231 95.216477,242.731713 95.2963085,241.924187 C95.4068445,240.84032 95.5327327,239.756454 95.6923957,238.681798 C95.7077479,238.574333 95.7231002,238.466867 95.7384524,238.362472 C97.4579007,227.029465 101.863987,209.733657 108.517638,199.766998 C124.499296,176.646558 153.008364,161.245214 185.533572,161.245214 C210.569968,161.245214 233.211418,170.388994 249.610657,185.136334 C266.009896,170.388994 288.651346,161.245214 313.687742,161.245214 C346.21295,161.245214 374.718947,176.646558 390.703676,199.766998 C397.357327,209.733657 401.760343,227.029465 403.482862,238.362472 C403.498214,238.469938 403.513566,238.574333 403.528918,238.681798 C403.688581,239.756454 403.81447,240.84032 403.925006,241.924187 C404.004837,242.734784 404.078528,243.545381 404.130725,244.359048 C404.155289,244.752065 404.176782,245.145082 404.198275,245.538099 C404.256613,246.732501 404.2996,247.929974 404.2996,249.136658 C404.296529,306.799587 335.079522,347.080735 249.607587,347.212764 Z M462.057712,218.40459 C454.277208,221.441258 446.567325,218.711634 444.832524,212.31283 C443.097724,205.914025 448.004292,198.26248 455.784796,195.225812 C463.5653,192.189143 471.275183,194.918767 473.009984,201.317572 C474.738644,207.719446 469.835145,215.370991 462.057712,218.40459 Z" id="Shape"></path>
            </g>
        </g>
    </g>
</svg>