<?xml version="1.0" encoding="UTF-8"?>
<svg width="772px" height="143px" viewBox="0 0 772 143" version="1.1" xmlns="http://www.w3.org/2000/svg" xmlns:xlink="http://www.w3.org/1999/xlink">
    <!-- Generator: Sketch 49.3 (51167) - http://www.bohemiancoding.com/sketch -->
    <title>Group</title>
    <desc>Created with Sketch.</desc>
    <defs>
        <linearGradient x1="67.4006383%" y1="5.12617476%" x2="50%" y2="72.0436062%" id="linearGradient-1">
            <stop stop-color="#FCD914" offset="0%"></stop>
            <stop stop-color="#FF7B2A" offset="100%"></stop>
        </linearGradient>
        <path d="M87.1328347,14.3329322 C55.5350105,5.9076252 22.9151117,24.7268853 14.4177921,56.2848383 C5.92066515,87.8425997 24.7144331,120.371458 56.3124499,128.796956 C87.910274,137.222263 120.530173,118.402812 129.027492,86.8450501 C137.524619,55.2870971 118.730851,22.7584308 87.1328347,14.3329322 M53.1572327,140.515097 C15.0896723,130.364397 -7.55218924,91.1754965 2.68493022,53.156282 C12.9218571,15.1370676 52.2206841,-7.53571662 90.2880519,2.61479142 C128.355612,12.7652995 150.997666,51.9542003 140.760354,89.9734147 C130.52362,127.992821 91.2247931,150.665605 53.1572327,140.515097" id="path-2"></path>
        <filter x="-55.5%" y="-162.4%" width="211.0%" height="424.9%" filterUnits="objectBoundingBox" id="filter-4">
            <feGaussianBlur stdDeviation="8.59206989" in="SourceGraphic"></feGaussianBlur>
        </filter>
        <filter x="-55.5%" y="-162.4%" width="211.0%" height="424.9%" filterUnits="objectBoundingBox" id="filter-5">
            <feGaussianBlur stdDeviation="8.59206989" in="SourceGraphic"></feGaussianBlur>
        </filter>
        <linearGradient x1="56.3965089%" y1="73.0425121%" x2="5.93248515%" y2="13.1404269%" id="linearGradient-6">
            <stop stop-color="#FCD914" offset="0%"></stop>
            <stop stop-color="#FF7B2A" offset="100%"></stop>
        </linearGradient>
        <path d="M47.4362891,12.0603685 C39.8963513,12.0467624 32.2614512,12.2546407 25.9003814,13.2301311 C20.2285029,14.1000158 13.2508114,15.9440641 12.2152529,19.789729 C11.7151953,21.6473871 13.8787728,25.5118376 21.4511014,30.7863523 C28.06184,35.390914 37.879227,40.3777035 49.8443961,45.2084582 C57.6909337,48.3766907 72.3586161,52.2049179 91.5268212,56.1458794 L91.5268212,68.4470919 C70.40184,64.1668453 54.0697569,59.9266534 45.2897496,56.3799019 C11.6254315,42.7891512 -3.02032382,29.7993456 0.514752227,16.669607 C5.06581842,-0.232735905 31.4369033,-0.256936273 55.309438,0.0758643526 C52.3182981,3.75690686 49.6727841,7.7639325 47.4362891,12.0603685 Z M91.5268212,56.1458794 C98.8471371,57.6509281 106.82384,59.1724188 115.327673,60.6798697 C134.005808,63.9910321 148.940611,74.9943759 152.256715,87.2426189 C147.624229,91.7399715 142.294565,95.4501753 136.504722,98.2365005 C138.997912,96.7557692 140.944755,94.7277292 140.825603,92.0235145 C140.518557,85.0738295 129.106225,75.3695735 113.202428,72.5494448 C105.546232,71.1921863 98.2908379,69.8175858 91.5268212,68.4470919 L91.5268212,56.1458794 Z M141.226024,109.410838 C139.430221,110.2572 137.598436,111.030099 135.735483,111.726757 C137.799575,111.030295 139.620423,110.250446 141.226024,109.410838 Z M129.647001,101.029127 L129.632865,100.977116 C129.920967,100.899504 130.222069,100.814888 130.533046,100.723002 C130.238584,100.82733 129.943226,100.929377 129.647001,101.029127 Z" id="path-7"></path>
        <filter x="-86.1%" y="-210.8%" width="272.2%" height="521.7%" filterUnits="objectBoundingBox" id="filter-9">
            <feGaussianBlur stdDeviation="11.1525538" in="SourceGraphic"></feGaussianBlur>
        </filter>
        <filter x="-86.1%" y="-210.8%" width="272.2%" height="521.7%" filterUnits="objectBoundingBox" id="filter-10">
            <feGaussianBlur stdDeviation="11.1525538" in="SourceGraphic"></feGaussianBlur>
        </filter>
        <path d="M49.516109,12.6191167 C41.4002156,12.5700075 33.0462278,12.7283265 26.1775033,13.7816674 C20.5056248,14.6515521 13.5279333,16.4956004 12.4923748,20.3412652 C11.9923172,22.1989234 14.1558947,26.0633738 21.7282233,31.3378886 C28.3389619,35.9424502 38.1563488,40.9292398 50.121518,45.7599945 C58.2127647,49.0270343 73.5572511,52.9958771 93.6103947,57.066447 L93.6103947,69.3624002 C99.8546808,70.6121733 106.5006,71.863782 113.47955,73.1009811 C129.383347,75.9211098 140.795679,85.6253658 141.102725,92.5750508 C141.327713,97.6812626 134.186482,100.376602 129.909987,101.528653 L130.068886,102.113312 C138.520273,99.5398898 146.319675,95.1131827 152.858866,89.1840886 C150.338252,76.3863106 134.986941,64.6673719 115.604795,61.231406 C107.795407,59.8470576 100.430572,58.4508688 93.6103947,57.066447 L93.6103947,69.3624002 C71.6101731,64.9591293 54.5955565,60.578645 45.5668714,56.9314382 C11.9025534,43.3406875 -2.74320194,30.3508819 0.791874108,17.2211433 C5.45381343,-0.0929746964 33.0118809,0.303438172 57.3265084,0.652120478 L57.372407,0.65276938 C54.3880487,4.32891155 51.7482616,8.3298215 49.516109,12.6191167 Z" id="path-11"></path>
        <filter x="-86.1%" y="-210.8%" width="272.2%" height="521.7%" filterUnits="objectBoundingBox" id="filter-13">
            <feGaussianBlur stdDeviation="11.1525538" in="SourceGraphic"></feGaussianBlur>
        </filter>
        <filter x="-86.1%" y="-210.8%" width="272.2%" height="521.7%" filterUnits="objectBoundingBox" id="filter-14">
            <feGaussianBlur stdDeviation="11.1525538" in="SourceGraphic"></feGaussianBlur>
        </filter>
        <path d="M16.8044979,109.91256 C22.2980045,109.91256 26.751137,114.34671 26.751137,119.816365 C26.751137,125.286019 22.2980045,129.719977 16.8044979,129.719977 C11.3111839,129.719977 6.85785875,125.286019 6.85785875,119.816365 C6.85785875,114.34671 11.3111839,109.91256 16.8044979,109.91256" id="path-15"></path>
        <filter x="-17.6%" y="-17.7%" width="135.2%" height="135.3%" filterUnits="objectBoundingBox" id="filter-16">
            <feGaussianBlur stdDeviation="3.5" in="SourceAlpha" result="shadowBlurInner1"></feGaussianBlur>
            <feOffset dx="0" dy="0" in="shadowBlurInner1" result="shadowOffsetInner1"></feOffset>
            <feComposite in="shadowOffsetInner1" in2="SourceAlpha" operator="arithmetic" k2="-1" k3="1" result="shadowInnerInner1"></feComposite>
            <feColorMatrix values="0 0 0 0 1   0 0 0 0 1   0 0 0 0 1  0 0 0 0.5 0" type="matrix" in="shadowInnerInner1"></feColorMatrix>
        </filter>
        <path d="M206.19951,23.1289082 C213.524121,23.1289082 219.462017,29.0411723 219.462017,36.3337889 C219.462017,43.6267889 213.524121,49.5388613 206.19951,49.5388613 C198.875091,49.5388613 192.937196,43.6267889 192.937196,36.3337889 C192.937196,29.0411723 198.875091,23.1289082 206.19951,23.1289082" id="path-17"></path>
        <filter x="-13.2%" y="-13.3%" width="126.4%" height="126.5%" filterUnits="objectBoundingBox" id="filter-18">
            <feGaussianBlur stdDeviation="3.5" in="SourceAlpha" result="shadowBlurInner1"></feGaussianBlur>
            <feOffset dx="0" dy="0" in="shadowBlurInner1" result="shadowOffsetInner1"></feOffset>
            <feComposite in="shadowOffsetInner1" in2="SourceAlpha" operator="arithmetic" k2="-1" k3="1" result="shadowInnerInner1"></feComposite>
            <feColorMatrix values="0 0 0 0 0.679391572   0 0 0 0 0.99107001   0 0 0 0 1  0 0 0 1 0" type="matrix" in="shadowInnerInner1"></feColorMatrix>
        </filter>
    </defs>
    <g id="Page-1" stroke="none" stroke-width="1" fill="none" fill-rule="evenodd">
        <g id="CN-mobiuspace-color-W" transform="translate(-64.000000, -379.000000)">
            <g id="Group" transform="translate(64.000000, 379.000000)">
                <g id="logo">
                    <g id="circle" transform="translate(39.139785, 0.000000)">
                        <mask id="mask-3" fill="white">
                            <use xlink:href="#path-2"></use>
                        </mask>
                        <use fill="url(#linearGradient-1)" xlink:href="#path-2"></use>
                        <rect id="shadow-blur-2" fill="#E45306" filter="url(#filter-4)" mask="url(#mask-3)" transform="translate(11.857108, 84.529448) rotate(22.000000) translate(-11.857108, -84.529448) " x="-11.3568169" y="76.5952267" width="46.4278501" height="15.868443"></rect>
                        <rect id="shadow-blur-1" fill="#E45306" filter="url(#filter-5)" mask="url(#mask-3)" transform="translate(138.308721, 74.315162) rotate(22.000000) translate(-138.308721, -74.315162) " x="115.094796" y="66.380941" width="46.4278501" height="15.868443"></rect>
                    </g>
                    <g id="ribbon1" transform="translate(0.000000, 26.436975)">
                        <mask id="mask-8" fill="white">
                            <use xlink:href="#path-7"></use>
                        </mask>
                        <use fill="url(#linearGradient-6)" xlink:href="#path-7"></use>
                        <rect id="shadow-blur-2" fill="#DF2B00" filter="url(#filter-9)" mask="url(#mask-8)" transform="translate(52.147395, 5.899557) rotate(-65.000000) translate(-52.147395, -5.899557) " x="32.7216255" y="-2.03466469" width="38.8515388" height="15.868443"></rect>
                        <rect id="shadow-blur-1" fill="#FF6500" filter="url(#filter-10)" mask="url(#mask-8)" transform="translate(144.276427, 94.223086) rotate(-31.000000) translate(-144.276427, -94.223086) " x="124.850658" y="86.2888647" width="38.8515388" height="15.868443"></rect>
                    </g>
                    <g id="ribbon2" transform="translate(71.053763, 13.819328)">
                        <mask id="mask-12" fill="white">
                            <use xlink:href="#path-11"></use>
                        </mask>
                        <use fill="url(#linearGradient-6)" transform="translate(76.567994, 51.332424) rotate(-180.000000) translate(-76.567994, -51.332424) " xlink:href="#path-11"></use>
                        <rect id="shadow-blur-2" fill="#DF2B00" filter="url(#filter-13)" mask="url(#mask-12)" transform="translate(101.523739, 97.227288) rotate(-65.000000) translate(-101.523739, -97.227288) " x="82.0979696" y="89.2930664" width="38.8515388" height="15.868443"></rect>
                        <rect id="shadow-blur-1" fill="#FF6500" filter="url(#filter-14)" mask="url(#mask-12)" transform="translate(9.394707, 6.500397) rotate(-29.000000) translate(-9.394707, -6.500397) " x="-10.0310627" y="-1.43382436" width="38.8515388" height="15.868443"></rect>
                    </g>
                    <g id="planet-purple">
                        <use fill="#E829CB" fill-rule="evenodd" xlink:href="#path-15"></use>
                        <use fill="black" fill-opacity="1" filter="url(#filter-16)" xlink:href="#path-15"></use>
                    </g>
                    <g id="planet-blue">
                        <use fill="#29BCF9" fill-rule="evenodd" xlink:href="#path-17"></use>
                        <use fill="black" fill-opacity="1" filter="url(#filter-18)" xlink:href="#path-17"></use>
                    </g>
                </g>
                <g id="Page-1" transform="translate(264.000000, 16.000000)" fill="#000000">
                    <path d="M52.7157707,2.03854359 L62.0961202,2.03854359 C62.8408219,2.03854359 63.4105548,2.69187692 63.3078872,3.42274872 L59.5077395,30.2855179 L93.6555662,30.2855179 C94.4002679,30.2855179 94.9728929,30.9374154 94.8673332,31.6682872 L93.5456685,41.0073641 C93.4617991,41.6075692 92.944123,42.0541333 92.3339014,42.0541333 L58.3147707,42.0541333 C57.697319,63.9573128 67.175998,83.5802872 86.7406855,100.9288 C87.2872821,101.414133 87.2945122,102.264185 86.7435776,102.743774 L78.3696599,110.03239 C77.8837963,110.455979 77.1419866,110.428697 76.6835974,109.974954 C60.5401997,93.9503385 51.3391571,78.5244923 49.0876997,63.7089026 C39.627819,82.2233641 25.692498,97.8588513 7.27450653,110.605313 C6.74526222,110.971467 6.01212869,110.866646 5.60724233,110.366954 L0.267080398,103.770441 C-0.169618466,103.231979 -0.0568286932,102.442236 0.50712017,102.034441 C24.5053134,84.6356718 39.5121372,64.6422359 45.5160236,42.0541333 L12.7896372,42.0541333 C12.0449355,42.0541333 11.4737565,41.4008 11.5778702,40.6699282 L12.8995349,31.3308513 C12.9834043,30.7306462 13.5010804,30.2855179 14.111302,30.2855179 L47.6546912,30.2855179 L51.5040037,3.08387692 C51.589319,2.48510769 52.1055491,2.03854359 52.7157707,2.03854359" id="Fill-1"></path>
                    <path d="M366.035203,41.5835897 L329.144272,41.5835897 C329.899095,38.4504615 330.554144,34.9913846 331.084834,31.2250256 L332.619064,20.398359 L362.405686,20.398359 C363.267516,20.398359 363.996311,19.7694359 364.116331,18.9222564 L365.296286,10.5825641 C365.442334,9.55015385 364.635453,8.62974359 363.587087,8.62974359 L294.539502,8.62974359 C293.677672,8.62974359 292.948877,9.25866667 292.828857,10.1044103 L291.648902,18.4455385 C291.502854,19.4765128 292.309735,20.398359 293.358101,20.398359 L320.766016,20.398359 L319.233232,31.2250256 C318.701095,34.9913846 318.046047,38.4504615 317.292669,41.5835897 L283.235942,41.5835897 C282.377005,41.5835897 281.646763,42.2125128 281.528189,43.0596923 L280.346789,51.3993846 C280.20074,52.430359 281.007621,53.3522051 282.055988,53.3522051 L313.731115,53.3522051 C308.048246,69.3667692 293.829505,85.5292308 271.079229,101.83959 C270.36634,102.352205 270.218845,103.353026 270.772672,104.033641 L276.089698,110.577026 C276.613158,111.223179 277.566087,111.349538 278.245718,110.868513 C298.283255,96.6918974 312.355948,81.7513846 320.465243,66.0627692 L320.738541,65.5185641 L317.586212,87.6457436 C315.587809,101.681641 323.678306,111.727179 337.810286,111.727179 C351.349397,111.727179 361.791127,102.123897 364.662928,88.2358974 C364.872601,86.7597949 364.233459,86.0217436 363.044828,86.0217436 L354.117084,86.0217436 C352.927007,86.0217436 352.250269,86.6133333 351.888763,88.0894359 C350.263434,95.3277949 345.636161,99.6139487 339.387897,99.6139487 C332.691365,99.6139487 329.327916,95.032 330.316996,88.0894359 L334.566857,58.2486154 C334.727365,57.1257436 334.951499,55.3437949 335.217567,53.3522051 L364.855249,53.3522051 C365.714186,53.3522051 366.444428,52.7232821 366.563002,51.8761026 L367.744402,43.5364103 C367.890451,42.5054359 367.08357,41.5835897 366.035203,41.5835897" id="Fill-3"></path>
                    <g id="Group-7" transform="translate(406.332386, 7.037190)">
                        <path d="M78.1539134,50.4285744 L65.4578338,50.4974974 C65.2553906,50.5061128 65.0558395,50.5233436 64.8490582,50.5233436 C58.9015668,50.5233436 55.8461207,46.5416 56.7079503,40.507959 L57.1518793,36.9584205 L88.0027741,36.9584205 L87.5588452,40.507959 C86.7707628,46.0318564 83.2988622,49.8254974 78.1539134,50.4285744 Z M69.3013622,84.1247795 C67.887152,90.4211897 63.8614247,94.1516513 58.4243793,94.1516513 C52.5997997,94.1516513 49.6730497,90.1656 50.5334332,84.1247795 L53.9200185,60.3448821 L53.8824219,60.3448821 L54.4029901,56.6847795 C56.6963821,59.0741128 59.7388139,60.6263179 63.6358452,60.9537026 C64.6191406,68.1073436 66.9284389,75.5165744 70.2889957,82.5740103 C69.8262685,82.8353436 69.5009134,83.3120615 69.3013622,84.1247795 Z M70.0590781,11.6478564 C70.1111349,11.6478564 70.1617457,11.6536 70.2138026,11.6550359 L82.264956,11.6622154 C87.9637315,11.8244718 90.7574474,15.7530872 89.9173082,21.663241 L89.3808338,25.947959 L58.5299389,25.947959 L59.0649673,21.663241 C59.9239048,15.6281641 64.1115866,11.6478564 70.0590781,11.6478564 Z M83.4044219,1.12129231 L71.5571577,1.12129231 C59.1459446,1.12129231 49.626777,9.85011282 47.8901037,22.0480615 L39.4438849,83.6466256 C39.4366548,83.7083692 39.4540071,83.7543179 39.449669,83.8131897 C37.7520384,95.9838564 44.7826009,104.689703 57.0535497,104.689703 C65.4158991,104.689703 72.405973,100.463856 76.6601719,93.6979077 C79.1270866,97.3264205 81.8658537,100.738113 84.8330923,103.825292 C85.4418679,104.457087 86.3065895,104.820369 87.2031236,104.820369 L96.7381974,104.820369 C97.4351804,104.820369 98.0396179,104.426933 98.3158082,103.795138 C98.5919986,103.166215 98.4690866,102.462626 97.9976832,101.961497 C92.7992315,96.4246769 84.8229702,84.9188308 81.9757514,79.4696 L92.7327145,74.8201641 C93.655277,74.4209846 94.0659474,73.5766769 93.7998793,72.623241 L91.8390724,65.5902154 C91.5397457,64.5176 90.7979361,64.1715487 89.8753736,64.5692923 L77.7143224,69.8261128 C76.9696207,67.4094974 76.285652,64.4659077 75.8590753,61.0456 L77.0057713,61.0499077 C87.4764219,61.0499077 96.9955895,52.3182154 98.7322628,40.1217026 L100.980828,22.0480615 C102.716055,9.85011282 95.6854929,1.12129231 83.4044219,1.12129231 Z M23.2151719,42.1850872 C23.0402031,42.719241 23.1009361,43.2892923 23.3554361,43.7904205 C26.0493764,49.0903179 26.720331,56.5196513 25.3654077,66.0870359 C25.0111321,70.7939077 23.5969219,72.9937026 21.1155469,72.6778051 L17.3226293,72.6778051 L16.8483338,72.6778051 L25.3769759,12.4189333 L32.9613651,12.4189333 L23.2151719,42.1850872 Z M34.864331,40.3198564 L44.3386719,12.4189333 L44.4557997,11.5976 C45.2742486,5.81524103 40.7539815,0.650317949 34.8730071,0.650317949 L27.1208793,0.650317949 C20.550152,0.650317949 14.9829645,5.45483077 14.0705241,11.9149333 L3.10967188,89.3600615 L3.16606676,89.3600615 L1.22405824,102.993908 C1.0751179,104.037805 1.64051278,104.689703 2.82191335,104.689703 L10.5725952,104.689703 C11.6224077,104.689703 12.3728935,104.037805 12.5189418,102.993908 L14.4609503,89.3600615 L14.4884247,89.3600615 L15.2446946,84.0127795 L19.9890952,83.9754462 C29.6051463,85.2347282 35.0349616,79.2685744 36.2713111,66.0870359 C37.4295753,57.9009846 36.9408196,49.8657026 34.8166122,41.9682667 C34.6705639,41.4254974 34.6835781,40.8525744 34.864331,40.3198564 Z" id="Fill-5"></path>
                    </g>
                    <path d="M231.607436,16.9412923 C228.988689,13.9488821 225.111902,12.3665231 220.396422,12.3665231 L198.658362,12.3665231 L199.923632,3.22990769 C200.036422,2.41575385 199.789152,1.59442051 199.245447,0.974112821 C198.701743,0.355241026 197.915106,0.000574358974 197.087981,0.000574358974 L188.054677,0.000574358974 C186.503095,0.000574358974 185.172754,1.15072821 184.958743,2.67995897 L183.616834,12.3665231 L162.085555,12.3665231 C151.865066,12.3665231 144.205484,19.7700103 142.575816,31.211241 L142.150686,33.9696 C141.991623,35.0939077 142.380603,35.8132923 142.736325,36.2182154 C143.219297,36.7710359 143.93797,37.0754462 144.759311,37.0754462 L150.732831,37.0754462 C152.290197,37.0754462 153.491842,36.0042667 153.717422,34.4233436 L154.194609,31.2902154 C154.929189,26.1252923 157.20089,23.5076513 160.944643,23.5076513 L220.003103,23.5894974 C221.102081,23.7216 221.911853,24.1351385 222.475802,24.8530872 C223.412825,26.0477538 223.703476,28.1226256 223.317387,30.8364718 L222.838754,33.9696 C222.679691,35.0939077 223.070118,35.8118564 223.424393,36.2182154 C223.908811,36.7710359 224.627484,37.0754462 225.447379,37.0754462 L231.422345,37.0754462 C233.060689,37.0754462 234.269564,36.0286769 234.499481,34.4262154 L234.923166,31.6678564 C235.79801,25.5150359 234.651314,20.4219077 231.607436,16.9412923 M226.761814,66.9306256 L225.612226,75.0520615 C225.499436,75.8360615 224.825589,76.4190359 224.028831,76.4190359 L188.913615,76.4190359 L185.649941,99.4867282 C184.939944,106.703549 180.34593,110.15401 171.856331,109.843856 L159.607072,109.843856 C159.015649,109.843856 158.512433,109.420267 158.416995,108.8416 L157.025922,100.407138 C156.905902,99.6777026 157.471297,99.0171897 158.214552,99.0171897 L168.647606,99.0171897 C172.397143,99.3316513 174.330476,97.9201641 174.462064,94.7798564 L177.060566,76.4190359 L140.500774,76.4190359 C139.527601,76.4190359 138.781453,75.5661128 138.915933,74.6098051 L140.065521,66.4883692 C140.176865,65.7043692 140.852157,65.1213949 141.650362,65.1213949 L178.659868,65.1213949 L180.724788,50.5269333 L154.122308,50.5269333 C153.149135,50.5269333 152.402987,49.6740103 152.537467,48.7177026 L153.687055,40.5962667 C153.796953,39.8122667 154.473691,39.2292923 155.271896,39.2292923 L220.308214,39.2292923 C221.279941,39.2292923 222.027535,40.0836513 221.891609,41.0385231 L220.742021,49.159959 C220.630677,49.943959 219.955385,50.5269333 219.158626,50.5269333 L192.577836,50.5269333 L190.512916,65.1213949 L225.178419,65.1213949 C226.150146,65.1213949 226.896294,65.9743179 226.761814,66.9306256" id="Fill-8"></path>
                    <polygon id="Fill-10" points="110.868732 105.145169 109.21882 105.145169 122.911209 7.71665641 124.561121 7.71665641"></polygon>
                    <polygon id="Fill-12" points="249.614901 105.145169 247.966436 105.145169 261.658825 7.71665641 263.307291 7.71665641"></polygon>
                    <polygon id="Fill-14" points="385.65108 105.145169 384.001168 105.145169 397.693557 7.71665641 399.343469 7.71665641"></polygon>
                </g>
            </g>
        </g>
    </g>
</svg>