<svg xmlns="http://www.w3.org/2000/svg" xmlns:xlink="http://www.w3.org/1999/xlink" viewBox="0 0 629 195.19"><defs><style>.cls-1{fill:url(#未命名的渐变_10);}.cls-2{fill:#19b06a;fill-rule:evenodd;}</style><linearGradient id="未命名的渐变_10" x1="97.36" y1="195.19" x2="97.36" y2="0.47" gradientUnits="userSpaceOnUse"><stop offset="0" stop-color="#1c9c72"/><stop offset="1" stop-color="#39b05b"/></linearGradient></defs><title>简寻logo</title><g id="图层_2" data-name="图层 2"><g id="图层_1-2" data-name="图层 1"><path class="cls-1" d="M178.57,76.72a5,5,0,0,0-7.07,0l-59.23,59.22L97.45,150.77a1,1,0,0,1-1.42,0L43.21,98a5,5,0,0,1,0-7.07l8.46-8.47a5,5,0,0,1,7.07,0L96,119.7a1,1,0,0,0,1.42,0L156,61.18a5,5,0,0,0,0-7.07L105.84,4a12,12,0,0,0-17,0L3.51,89.34a12,12,0,0,0,0,17l85.36,85.36a12,12,0,0,0,17,0l85.36-85.36a12,12,0,0,0,0-17Z"/><g id="_编组_" data-name="&lt;编组&gt;"><path class="cls-2" d="M275.76,60H261.51a2.66,2.66,0,0,0-2.67,2.64V76.91a2.67,2.67,0,0,0,2.67,2.65h14.25a2.67,2.67,0,0,0,2.68-2.65V62.6A2.66,2.66,0,0,0,275.76,60ZM268.45,47.8l7.84-13.47h18V47.52a2.64,2.64,0,0,0,2.64,2.64h14.32a2.64,2.64,0,0,0,2.64-2.64V34.33h18.47A2.64,2.64,0,0,0,335,31.69V17.36a2.64,2.64,0,0,0-2.64-2.64H287.69l2.12-3.63a2.48,2.48,0,0,0-.92-3.4L276,.33a2.54,2.54,0,0,0-3.44.92L251.24,38a2.48,2.48,0,0,0,.92,3.4L265,48.71A2.53,2.53,0,0,0,268.45,47.8Zm7.35,40.81H261.48a2.64,2.64,0,0,0-2.64,2.63V191a1.84,1.84,0,0,0,0,.33c.12.66.69,2.78,2.93,1.29l14.61-9.75a4.6,4.6,0,0,0,2-3.84V91.24A2.64,2.64,0,0,0,275.8,88.61Zm193,6H611.69a1.48,1.48,0,0,0,1.48-1.48v-77a1.48,1.48,0,0,0-1.48-1.48H468.8a2.64,2.64,0,0,0-2.64,2.64V31.69a2.64,2.64,0,0,0,2.64,2.64H592.09a1.48,1.48,0,0,1,1.48,1.48v7.56a1.48,1.48,0,0,1-1.48,1.48H583l-.29,0H483.88a2.64,2.64,0,0,0-2.64,2.64V61.84a2.64,2.64,0,0,0,2.64,2.64h98.81l.29,0h9.11A1.48,1.48,0,0,1,593.57,66v7.56A1.48,1.48,0,0,1,592.09,75H583l-.29,0H468.8a2.64,2.64,0,0,0-2.64,2.63V92A2.64,2.64,0,0,0,468.8,94.64Zm-49-79.92H375.15l2.11-3.63a2.48,2.48,0,0,0-.92-3.4L363.49.33a2.54,2.54,0,0,0-3.44.92L338.69,38a2.48,2.48,0,0,0,.92,3.4l12.85,7.35a2.53,2.53,0,0,0,3.44-.91l7.84-13.47h18V47.52a2.64,2.64,0,0,0,2.64,2.64h14.33a2.64,2.64,0,0,0,2.63-2.64V34.33h18.47a2.64,2.64,0,0,0,2.64-2.64V17.36A2.64,2.64,0,0,0,419.79,14.72ZM381.72,164V92a2.64,2.64,0,0,0-2.64-2.64H296.91A2.64,2.64,0,0,0,294.27,92v72a1.51,1.51,0,0,0,1.51,1.51h84.44A1.5,1.5,0,0,0,381.72,164Zm-19.6-19.6a1.5,1.5,0,0,1-1.51,1.51H315.38a1.51,1.51,0,0,1-1.51-1.51v-4.9a2.64,2.64,0,0,1,2.64-2.64h43a2.64,2.64,0,0,1,2.64,2.64Zm0-27.89a1.51,1.51,0,0,1-1.51,1.51H315.38a1.52,1.52,0,0,1-1.51-1.51v-4.9a2.64,2.64,0,0,1,2.64-2.64h43a2.64,2.64,0,0,1,2.64,2.64Zm177,39.73-24.64-15.09a2.65,2.65,0,0,0-2.77,0l-15.23,9.35a2.61,2.61,0,0,0,0,4.45L521,170.24a2.63,2.63,0,0,0,2.79,0l15.4-9.56A2.62,2.62,0,0,0,539.12,156.23ZM626.36,112H593.57v-7.17a2.73,2.73,0,0,0-2.76-2.63H576.23c-1.47,0-2.26,1.17-2.26,2.63V112H454.47a2.64,2.64,0,0,0-2.64,2.63v14.33a2.64,2.64,0,0,0,2.64,2.64H563.09l.29,0h9.11a1.47,1.47,0,0,1,1.48,1.47v29.42c0,.5-.31,2-.76,2.26l-25.44,16.4a1.46,1.46,0,0,0,0,2.5l16.28,11a1.54,1.54,0,0,0,1.59,0l27.91-18.41V131.58h32.79a2.64,2.64,0,0,0,2.64-2.64V114.61A2.64,2.64,0,0,0,626.36,112ZM415.68,60H296.5a2,2,0,0,0-2.23,2.22v15.1a2,2,0,0,0,2.23,2.22h99.58A1.47,1.47,0,0,1,397.55,81v81.52c0,.5-.31,2-.75,2.26l-25.44,16.4a1.46,1.46,0,0,0,0,2.5l16.28,11a1.54,1.54,0,0,0,1.59,0l27.91-18.41V61.43A1.47,1.47,0,0,0,415.68,60Z"/></g></g></g></svg>