<?xml version="1.0" encoding="utf-8"?>
<!-- Generator: Adobe Illustrator 21.0.0, SVG Export Plug-In . SVG Version: 6.00 Build 0)  -->
<svg version="1.1" id="图层_1" xmlns="http://www.w3.org/2000/svg" xmlns:xlink="http://www.w3.org/1999/xlink" x="0px" y="0px"
	 viewBox="0 0 841.9 595.3" style="enable-background:new 0 0 841.9 595.3;" xml:space="preserve">
<style type="text/css">
	.st0{fill:#C90008;}
	.st1{fill:#FFFFFF;}
</style>
<path class="st0" d="M360.1,445.9c-6.4,0-12.8,0-19.2,0c-3.5-0.3-7-0.7-10.5-1c-6.7-0.4-13.5-0.3-20.1-1.2
	c-7.7-1.1-9.9-3.9-10.9-11.7c-0.4-3.3-0.9-6.7-1-10.1c-0.4-25.3-1.3-50.5-1-75.8c0.5-36.7-2.6-73.1-6.5-109.5
	c-1.7-15.8,0-31.2,3.2-46.6c1.5-0.2,2.7-0.3,3.9-0.4c22.9-1.4,45.8-3.3,68.7-4c39.8-1.3,79.6-2.5,119.3-2.5c13.1,0,26.8,1.8,39.2,6
	c16.8,5.6,22.2,15,22,30.6c-0.2,14.2-0.2,28.3,0,42.5c0.5,27.3,1.2,54.6,1.8,81.9c0.4,19,0.7,38.1,1.2,57.1
	c0.3,12.3-5.8,19.9-16.7,24.3c-5.8,2.4-11.7,2.9-17.8,1.5c-2.9-0.6-6.6-1.5-6.9,3.2c-0.4,5.9-4.1,7.2-9,7.2
	c-7.7,0-15.5-0.1-23.2-0.1c-6.3,0-12.8,1.3-18.3-3.7c-0.9-0.9-3.3-0.7-4.8-0.3c-8,2.4-16.2,4.6-23.9,7.8c-8.2,3.4-15.8,3.4-19.8-2.6
	c-4.3-6.4-10.1-6.9-16.4-5.5c-4.7,1-9.1,3-13.8,4.5c0.6-16.7,1.3-33.4,1.8-50.1c0.1-4.1,1.6-5.8,5.7-5.4c5.3,0.6,10.5,1.1,15.9,1.6
	c-1.4-6-3.8-7.8-9.2-7c-3.2,0.5-6.3,1.2-9.5,1.4c-4.8,0.3-6.5-1.5-6.3-6.2c0.3-6.7,0.2-13.5,1.1-20.1c1.1-8.5,0.2-15.7-8.8-20.1
	c2.2-1,4.4-1.1,6.2-1.9c5.9-2.6,11.8-5.3,17.5-8.4c1.3-0.7,2.9-3.6,2.4-4.3c-1.2-2-3.3-3.5-5.3-4.8c-1-0.6-2.7-0.3-4-0.1
	c-3.1,0.6-4.9-0.5-6.5-3.2c-2.7-4.4-6.1-5-10.2-1.9c-2.7,2-5.1,4.4-7.3,6.9c-3.5,4.1-6.6,8.5-10.1,12.6c-2.1,2.5-4.6,4.9-9.8,1.2
	c1.3-1.5,3.3-2.2,4.9-3.3c2.6-1.8,5.9-3.5,4.6-7.5c-1.3-4.1-3.6-7.8-8.1-9.7c-1.3,7.7-6.7,15.1-13.9,19.4c-6.2,3.7-6.9,7.3-2.2,14.2
	c1.4-0.9,2.8-1.7,4.1-2.7c5.7-4.2,8.3-3.8,11.9,1.9c0.4,0.7,0.8,1.7,1.5,2c4.2,1.8,4.9,5.1,3.9,8.2c1.9,2.2,4.9,4.8,4.6,5.3
	c-1.5,2.4-3.9,4.2-6.2,6.4c-1-3.7-1.8-6.6-2.6-9.5c-0.5,0.1-1,0.3-1.5,0.4c-2,9-4.4,18,1.8,26.6c5-0.5,9.9-0.7,14.7-1.7
	c7-1.4,7.9-4.5,3.3-9.6c2.5-4.7,2.4-4.7,1.2-10.9c-0.2-0.9,0.4-2.4,1.2-2.9c2.7-2,2.1-4.4,0.5-6.1c-1.4-1.5-3.7-2.5-5.8-2.8
	c-1.5-0.2-3.3,0.9-5,1.5c0.9-2.8,2-5.7,4-6.8c2.5-1.3,5.9-1.6,8.6-1c1.3,0.3,2.6,3.7,2.7,5.8c0.5,8.1,1,16.2,0.6,24.2
	c-0.2,3.3-2.1,7.9-4.7,9.3c-6.3,3.5-13.5,5.6-20.4,8c-1.2,0.4-3-0.6-4.2-1c-2.3,1.3-5,3.5-8,4.4c-8.9,2.8-17.9,5.2-27.5,7.9
	c4.8,3,8.8,4.6,14,2c4.7-2.4,10-3.7,16.1-5.9c0.6,4.9,2.4,9.5,1.3,13.2c-1.5,4.7,0.1,7.1,3.7,10.9c3.2-7.8,6.1-14.9,9.5-23.1
	c-3.1,2.3-5.2,3.9-7.9,5.9c-0.8-4.1-2.8-7.7,1.8-9.3c7.6-2.6,15.2-4.9,23-6.8c3.6-0.9,6.7,0.4,6.6,5.1c-0.2,9.8-0.6,19.5-0.6,29.3
	c0,7.2-3.9,14.9,3.8,22.2C371.3,443.1,365.7,444.5,360.1,445.9z"/>
<path d="M464.4,204.5c3.5,3.1,6.4,5.4,8.9,8.2c0.9,0.9,1.4,3.8,0.9,4.2c-5.9,4.3-7.3,9.7-4.6,16.8c-11.9,3.1-23.4,6.1-34.9,9.1
	c1.1,5.1,4.6,7.2,10.8,5.6c5.2-1.4,10.1-3.6,15.2-5.5c1.4-0.5,3.2-2,4.1-1.5c4.6,2.3,8-1,11.9-1.9c7.7-1.7,15.4-3.6,23.1-5.3
	c1.1-0.2,2.3,0,3.4,0c0.1,0.5,0.2,1.1,0.3,1.6c-10.8,3.9-22.9,4.4-32.9,10.4c0.1,0.5,0.2,1,0.3,1.5c3.5,0.5,7,0.9,11.8,1.5
	c-3.4,2.2-5.6,3.6-8.4,5.4c2.5,2.1,4.5,3.7,6.8,5.6c-3.4,1.8-6.3,3.3-10.3,5.4c0-4.2,0-7.1,0-10c0.1-5.1-2.9-7.7-9.4-7.3
	c1.9,6.9,3.6,13.7,5.8,20.3c0.3,1.1,2.4,1.7,3.8,2.2c1.1,0.5,2.4,0.6,3.7,0.8c-0.3,1.3-0.7,2.6-1,4.1c2.1-0.5,4.2-1.3,6.3-1.4
	c1.5-0.1,3.1,0.8,4.6,1.2c-1.2,1-2.3,2.5-3.7,2.9c-9.3,2.4-18.6,4.4-27.9,6.7c-0.9,0.2-2.1,1.6-2.1,2.2c0.2,1.3,0.9,3.1,1.9,3.7
	c1.3,0.7,3.3,0.7,4.8,0.3c4.9-1.3,9.6-3,14.4-4.5c3.9-1.2,7.9-2.4,12.6-3.9c0,7.3-0.1,13.7,0,20.1c0.1,6.2,0.4,12.5,0.7,18.7
	c0.7,0.1,1.5,0.1,2.2,0.2c3.1-13,5.7-26.1,6.7-40.6c7.3,1.4,14,2.8,20.8,3.9c1.5,0.2,3.1-0.9,4.7-1.4c-0.6-1.6-0.8-4-2-4.6
	c-2.6-1.4-5.6-2.3-8.5-2.6c-4.6-0.4-9.3-0.1-15-0.1c0.9-2.3,1.2-4.9,2.3-5.2c8.3-2.6,11.2-10.4,16.1-16.2c3.5-4.2,3-7.9-1.2-11.5
	c-2.5-2.1-5.5-3.6-9-5.8c9.2-9.3,21.8-3.4,33-7.9c-9.7-7.7-20.1-2.1-29.4-4c6-9.4,5.7-10.4-4.9-17.9c2.9-1,5.1-1.6,7.3-2.5
	c1.3-0.5,3.1-1.4,3.3-2.4c0.2-1.1-0.9-2.8-1.9-3.8c-1-1-2.7-1.3-4-1.9c-1.9-0.9-4.2-1.4-5.5-2.8c-4.8-5.4-11.3-4.7-18.1-6.3
	c2.2,4.8,4,8.7,6.3,13.8C480.1,203,472.9,203.7,464.4,204.5z"/>
<path d="M496.8,321c6.4,1.2,6.4,4.8,5.1,9c-1.3,4.2-2.6,8.4-3.4,12.7c-1.3,6.1-5,9.5-10.8,11.3c-9.7,3-16.3,9.7-20.1,18.7
	c-3.8,9-6.2,18.5-9.3,27.7c-0.6,1.9-1.1,4-2.1,5.6c-0.7,1.1-2.4,2.3-3.5,2.2c-0.9-0.1-2.4-2.1-2.3-3.2c0.6-8.2,0.6-16.6,2.7-24.4
	c1.1-4.3,1.2-7.5-0.2-11.4c-1.3-3.7-2.4-7.8-2.4-11.7c0-3.5,1.6-6.8,5.9-7.8c2.8-0.6,5.4-1.7,8.1-2.8c2-0.8,3.9-1.8,5.8-2.7
	c1.6-0.7,4.3-1.4,4.4-2.3c0.1-1.7-0.7-4.4-2-5.2c-6.3-3.5-12.8-6.5-19.3-9.7c-0.3,0.4-0.5,0.8-0.8,1.2c1.4,2.2,2.7,4.7,4.4,6.7
	c3.1,3.7,2.2,6.5-0.7,10.1c-3.3,4.3-6.8,9.3-7.7,14.4c-2,11.2-2.9,22.7-3.2,34.1c-0.3,8.5,3.5,16.1,9.5,22.2
	c1.7,1.7,4.2,2.6,6.9,4.2c0.4-2.4,0.6-3.6,0.7-4.7c1.3-9.5,1.9-19.2,4.1-28.5c1.4-6.2,4.4-12.4,7.8-17.9c3.5-5.6,10.1-6.6,15-3.4
	c-0.8,1.1-2.3,2.2-2.2,3.2c0.5,3.6,1.5,7.2,2.3,10.8c2-0.5,4.1-1,6.1-1.6c2.8-0.9,5.6-1.9,8.3-2.9c0.3,0.5,0.5,1,0.8,1.5
	c-1.1,1.4-2.1,2.9-3.3,4.2c-5.6,5.4-11.3,10.6-17,15.9c-4.7,4.4-5,8-0.9,13.8c3.4,4.9,4,4.7,10.9,1.5c7.8-3.6,16-6.4,23.7-9.4
	c2.2,4.1,3.6,7,5.4,9.6c0.8,1.2,2.6,1.8,3.9,2.7c0.9-1.3,2.1-2.6,2.5-4.1c2.5-8.7-6.4-19.5-16.2-19.7c0.4,2.1,0.8,4.2,1.3,6.5
	c-7.8,2.7-15.4,5.1-23.7,4.5c1.1-1.7,2.4-2.6,3.6-3.7c7.1-6,14.4-11.6,21.1-18c6.3-6,5.2-9.5-3.2-12.3c-2.3-0.8-5-0.6-7.5-0.6
	c-1.8,0-3.6,0.3-5.4,0.5c0.6-9.2,4.4-14.8,12.2-17.6c3.1-1.1,6.6-1.3,9.8-2.2c2.2-0.6,4.2-1.9,6.3-2.8c-0.1-0.6-0.2-1.3-0.2-1.9
	c-3.7-1-7.3-2.2-11-2.8c-5.4-1-5.9-1.6-4.5-7c0.2-0.8,0.3-1.7,0.7-2.4c2.2-4.6,0.9-8.2-3.1-10.9C506.1,317.3,502.1,317.3,496.8,321z
	"/>
<path d="M391.5,263.7c-0.2,0.2-0.4,0.3-0.6,0.5c0.8,2,1.7,4,2.2,6.1c1.8,6.4-0.1,9.9-6.6,11.1c-4.1,0.7-8.4,0.9-12.5,0.6
	c-8.2-0.6-11-4.3-7.6-11.7c4.6-9.8,10.4-19.1,16-28.5c2.1-3.5,3.2-7.3,0.1-9.5c-4.9-3.4-10.8-5.4-17.3-8.5
	c-3.7-7.6-12.6-9-21.5-12.2c0.7,3,1,5,1.6,6.8c0.6,1.9,1.5,3.7,2.4,5.6c2.6,5.7,1.2,9.2-4.5,11.5c-10.1,4-20.2,8.1-30.4,12.3
	c7.5,10.1,17,7.4,27.1,4.2c-5.5,8.9-11.3,16.9-17.4,24.7c-2.2,2.8-4.9,4.9-9.1,1.6c0.9,3.6,1.5,7.7,3.8,9.3
	c3.6,2.5,7.6-0.1,10.4-2.9c5.2-5,10.5-10,14.8-15.7c4.6-6,8.7-12.5,12.2-19.2c3.6-6.9,9.3-9.6,16.9-11.2c-1.1,2.1-1.9,3.6-2.7,5.2
	c-3.8,7.9-8.3,15.5-11.4,23.7c-4.5,12,1,21.2,13.6,23.6c10.8,2,21.5,0.9,32-2.1c1.3-0.4,2.5-1,3.6-1.7c2.7-1.7,3.2-4,1.1-6.3
	C402.4,275.1,396.9,269.5,391.5,263.7z"/>
<path class="st1" d="M360.1,445.9c5.6-1.4,11.2-2.8,18.2-4.6c-7.8-7.2-3.9-14.9-3.8-22.2c0-9.8,0.4-19.5,0.6-29.3
	c0.1-4.7-3-6-6.6-5.1c-7.8,1.9-15.4,4.2-23,6.8c-4.6,1.6-2.6,5.2-1.8,9.3c2.7-2,4.8-3.6,7.9-5.9c-3.4,8.2-6.3,15.3-9.5,23.1
	c-3.6-3.7-5.2-6.2-3.7-10.9c1.1-3.7-0.7-8.2-1.3-13.2c-6.1,2.2-11.3,3.5-16.1,5.9c-5.2,2.6-9.2,1-14-2c9.6-2.7,18.6-5.1,27.5-7.9
	c3-1,5.7-3.1,8-4.4c1.2,0.3,3,1.4,4.2,1c6.9-2.4,14-4.5,20.4-8c2.6-1.4,4.5-6,4.7-9.3c0.5-8-0.1-16.2-0.6-24.2
	c-0.1-2.1-1.4-5.5-2.7-5.8c-2.7-0.6-6.1-0.2-8.6,1c-2.1,1.1-3.2,3.9-4,6.8c1.7-0.5,3.4-1.7,5-1.5c2.1,0.3,4.4,1.3,5.8,2.8
	c1.7,1.7,2.2,4.1-0.5,6.1c-0.7,0.5-1.3,2-1.2,2.9c1.2,6.3,1.2,6.3-1.2,10.9c4.6,5.1,3.6,8.2-3.3,9.6c-4.8,0.9-9.7,1.1-14.7,1.7
	c-6.2-8.6-3.7-17.6-1.8-26.6c0.5-0.1,1-0.3,1.5-0.4c0.8,2.9,1.6,5.8,2.6,9.5c2.2-2.2,4.7-4,6.2-6.4c0.3-0.5-2.7-3.1-4.6-5.3
	c1-3.2,0.3-6.4-3.9-8.2c-0.7-0.3-1-1.3-1.5-2c-3.6-5.7-6.2-6.1-11.9-1.9c-1.3,1-2.7,1.8-4.1,2.7c-4.7-6.9-4-10.5,2.2-14.2
	c7.2-4.3,12.6-11.7,13.9-19.4c4.5,1.9,6.8,5.6,8.1,9.7c1.3,4-2,5.7-4.6,7.5c-1.7,1.1-3.6,1.8-4.9,3.3c5.2,3.7,7.7,1.3,9.8-1.2
	c3.5-4.1,6.6-8.5,10.1-12.6c2.2-2.5,4.7-4.9,7.3-6.9c4.1-3.1,7.5-2.5,10.2,1.9c1.6,2.7,3.4,3.9,6.5,3.2c1.3-0.3,3-0.5,4,0.1
	c2,1.2,4.1,2.8,5.3,4.8c0.5,0.7-1.1,3.6-2.4,4.3c-5.7,3.1-11.6,5.8-17.5,8.4c-1.8,0.8-4,0.9-6.2,1.9c9,4.4,9.9,11.6,8.8,20.1
	c-0.9,6.7-0.7,13.4-1.1,20.1c-0.2,4.7,1.5,6.5,6.3,6.2c3.2-0.2,6.3-0.9,9.5-1.4c5.4-0.8,7.8,1,9.2,7c-5.4-0.5-10.7-1-15.9-1.6
	c-4.1-0.5-5.6,1.3-5.7,5.4c-0.4,16.7-1.2,33.3-1.8,50.1c4.7-1.6,9.2-3.6,13.8-4.5c6.3-1.3,12.1-0.9,16.4,5.5c4,5.9,11.6,6,19.8,2.6
	c7.7-3.2,15.8-5.4,23.9-7.8c1.5-0.5,3.9-0.6,4.8,0.3c5.4,5,11.9,3.7,18.3,3.7c7.7,0,15.5,0.1,23.2,0.1c4.9,0,8.6-1.3,9-7.2
	c0.3-4.7,4.1-3.9,6.9-3.2c6.2,1.4,12,0.9,17.8-1.5c10.9-4.5,17.1-12,16.7-24.3c-0.5-19-0.8-38.1-1.2-57.1
	c-0.6-27.3-1.3-54.6-1.8-81.9c-0.2-14.2-0.2-28.3,0-42.5c0.2-15.5-5.2-25-22-30.6c-12.4-4.1-26.1-6-39.2-6
	c-39.8,0-79.6,1.2-119.3,2.5c-22.9,0.8-45.8,2.6-68.7,4c-1.2,0.1-2.3,0.2-3.9,0.4c-3.2,15.4-4.9,30.8-3.2,46.6
	c3.9,36.4,7,72.8,6.5,109.5c-0.3,25.3,0.5,50.5,1,75.8c0.1,3.4,0.6,6.7,1,10.1c1,7.8,3.2,10.5,10.9,11.7c6.6,1,13.4,0.8,20.1,1.2
	c3.5,0.2,7,0.6,10.5,1c-23.6,0-47.2,0-70.9,0c0-72.2,0-144.4,0-216.6c0.3,3.2,0.9,6.3,0.9,9.5c0,20.9-0.1,41.8-0.2,62.7
	c0,2.5,0.3,5,0.5,7.6c0.5,0,0.9,0,1.4,0c0.4-1.9,1-3.7,1.1-5.6c1.5-22,2.6-44,4.5-66c1.2-13.6-1.1-26.8-2.3-40.1
	c-0.2-1.8-0.4-3.7-0.6-5.5c-1,1.4-1.2,2.7-1.4,4c-1.3,9.5-2.7,18.9-4,28.4c0-24.3,0-48.5,0-72.9c70.5,0,141.1,0,211.6,0
	c-8.5,1-17,1.9-25.5,3c-5.8,0.8-11.6,1.9-17.4,2.9c-5.6,1-11.2,2.3-16.8,3.4c0,0.6,0,1.1,0.1,1.7c22.5,1.2,45,2.7,67.5,3.4
	c16.3,0.5,32.7-0.4,49-0.3c3.4,0,6.7,1.7,10.1,2.4c2.4,0.5,4.9,0.7,7.3,1.1c-0.7-2.7-0.8-5.8-2.2-8.1c-1.1-1.8-3.7-3-5.9-3.5
	c-3.9-1-7.9-1.6-11.9-2c-13.7-1.4-27.4-2.7-41.1-4c26.3,0,52.6,0,79,0c0,98.2,0,196.4,0,294.6C502.5,445.9,431.3,445.9,360.1,445.9z
	 M570.2,235.2c-0.7,0-1.4,0-2.1,0c-0.2,1.8-0.4,3.5-0.6,5.3c-3.6,31.9-2.5,64-2.7,96c-0.1,13-0.2,26-0.1,38.9c0,1.6,1.7,3.1,2.6,4.7
	c1.7-1.6,4-2.8,5-4.8c0.9-1.8,0.2-4.3,0.2-6.5c0.1-23.6,0.5-47.2,0.1-70.7C572.2,277.2,571,256.2,570.2,235.2z M354.5,334.1
	c11.9-0.5,20.2-8.9,30.5-13.1c-1.8-0.9-3.8-1.4-5.1-0.8c-5.5,2.8-7.6,0.2-8.6-4.8c-0.1-0.7-0.8-1.3-1.6-2.6
	C361.8,318.1,359.4,326.9,354.5,334.1z M566.3,388.4c-0.6,0.1-1.2,0.1-1.8,0.2c0,3.9-0.2,7.8,0.1,11.7c0.3,3.3,2.5,3.3,4.6,1.7
	c2.7-2,4.1-4.4,1.5-7.6C569.2,392.5,567.8,390.4,566.3,388.4z M347.4,364.2c0,3.8,0,6.6,0,10c4.3-0.9,8.6-1.2,11.6-5.2
	C354.9,367.3,351.5,365.9,347.4,364.2z M277.5,371.9c-1.8,7.2-6.4,14.4,0,22C277.5,386.5,277.5,379.2,277.5,371.9z"/>
<path class="st0" d="M494.8,151.3c13.7,1.3,27.4,2.6,41.1,4c4,0.4,8,1,11.9,2c2.2,0.6,4.8,1.8,5.9,3.5c1.4,2.3,1.5,5.4,2.2,8.1
	c-2.5-0.4-4.9-0.6-7.3-1.1c-3.4-0.7-6.7-2.4-10.1-2.4c-16.3-0.1-32.7,0.8-49,0.3c-22.5-0.6-45-2.2-67.5-3.4c0-0.6,0-1.1-0.1-1.7
	c5.6-1.1,11.2-2.4,16.8-3.4c5.8-1.1,11.6-2.1,17.4-2.9c8.5-1.1,17-2,25.5-3C486,151.3,490.4,151.3,494.8,151.3z"/>
<path class="st0" d="M270,224.2c1.3-9.5,2.7-18.9,4-28.4c0.2-1.3,0.4-2.6,1.4-4c0.2,1.8,0.4,3.7,0.6,5.5c1.3,13.3,3.6,26.5,2.3,40.1
	c-2,21.9-3,44-4.5,66c-0.1,1.9-0.7,3.7-1.1,5.6c-0.5,0-0.9,0-1.4,0c-0.2-2.5-0.5-5-0.5-7.6c0-20.9,0.2-41.8,0.2-62.7
	c0-3.2-0.6-6.3-0.9-9.5C270,227.6,270,225.9,270,224.2z"/>
<path class="st1" d="M464.4,204.5c8.5-0.8,15.8-1.5,24.2-2.3c-2.3-5.1-4.1-9-6.3-13.8c6.8,1.5,13.3,0.8,18.1,6.3
	c1.3,1.4,3.6,1.9,5.5,2.8c1.3,0.6,3,0.9,4,1.9c1,0.9,2.1,2.6,1.9,3.8c-0.2,1-2,1.9-3.3,2.4c-2.2,0.9-4.5,1.5-7.3,2.5
	c10.7,7.5,10.9,8.5,4.9,17.9c9.3,1.9,19.7-3.7,29.4,4c-11.2,4.5-23.8-1.4-33,7.9c3.5,2.2,6.5,3.7,9,5.8c4.2,3.6,4.7,7.3,1.2,11.5
	c-4.9,5.8-7.8,13.6-16.1,16.2c-1,0.3-1.4,3-2.3,5.2c5.6,0,10.3-0.3,15,0.1c2.9,0.3,5.9,1.2,8.5,2.6c1.1,0.6,1.4,3,2,4.6
	c-1.6,0.5-3.2,1.6-4.7,1.4c-6.7-1.1-13.4-2.5-20.8-3.9c-1,14.5-3.6,27.6-6.7,40.6c-0.7-0.1-1.5-0.1-2.2-0.2
	c-0.2-6.2-0.6-12.5-0.7-18.7c-0.1-6.4,0-12.8,0-20.1c-4.7,1.4-8.7,2.6-12.6,3.9c-4.8,1.5-9.6,3.2-14.4,4.5c-1.5,0.4-3.5,0.4-4.8-0.3
	c-1-0.5-1.7-2.3-1.9-3.7c-0.1-0.7,1.2-2,2.1-2.2c9.3-2.3,18.7-4.4,27.9-6.7c1.4-0.4,2.5-1.9,3.7-2.9c-1.5-0.4-3.1-1.3-4.6-1.2
	c-2.1,0.1-4.2,0.9-6.3,1.4c0.4-1.4,0.7-2.8,1-4.1c-1.2-0.3-2.5-0.4-3.7-0.8c-1.4-0.6-3.5-1.2-3.8-2.2c-2.1-6.6-3.8-13.4-5.8-20.3
	c6.5-0.5,9.4,2.2,9.4,7.3c0,2.9,0,5.9,0,10c4.1-2.1,6.9-3.6,10.3-5.4c-2.3-1.9-4.3-3.5-6.8-5.6c2.7-1.8,5-3.2,8.4-5.4
	c-4.8-0.6-8.3-1.1-11.8-1.5c-0.1-0.5-0.2-1-0.3-1.5c10-6,22.1-6.5,32.9-10.4c-0.1-0.5-0.2-1.1-0.3-1.6c-1.1,0-2.3-0.2-3.4,0
	c-7.7,1.7-15.4,3.6-23.1,5.3c-3.9,0.9-7.4,4.1-11.9,1.9c-0.9-0.5-2.7,1-4.1,1.5c-5,1.9-10,4.2-15.2,5.5c-6.2,1.6-9.7-0.4-10.8-5.6
	c11.5-3,23-6,34.9-9.1c-2.7-7-1.2-12.5,4.6-16.8c0.5-0.4,0-3.2-0.9-4.2C470.8,209.9,467.8,207.6,464.4,204.5z M491.6,244.9
	c5.2,6.9,5.1,6.9-0.5,12.6c-1.3,1.3-2.4,2.8-4.2,4.9c3.8,0,6.4,0,9,0c2.1-4.4,4.5-8.6,6.1-13c0.6-1.7,0.1-4.5-1.1-5.9
	c-0.8-1-3.6-0.6-5.4-0.4C494.3,243.2,493.1,244.1,491.6,244.9z M477,229.8c0.3,0.5,0.6,1,0.9,1.4c2.4-0.5,4.9-0.8,7.3-1.4
	c6.1-1.4,10.3-5.3,13.6-10.4c0.7-1,0-2.9-0.1-4.4c-1.2,0.4-2.6,0.6-3.7,1.3c-4.4,3-8.7,6.1-13,9.2
	C480.3,226.9,478.7,228.4,477,229.8z"/>
<path class="st1" d="M496.8,321c5.2-3.6,9.3-3.7,13.3-0.8c4,2.8,5.3,6.3,3.1,10.9c-0.4,0.7-0.5,1.6-0.7,2.4c-1.4,5.4-0.9,6,4.5,7
	c3.7,0.7,7.3,1.9,11,2.8c0.1,0.6,0.2,1.3,0.2,1.9c-2.1,1-4.1,2.2-6.3,2.8c-3.2,0.9-6.7,1.1-9.8,2.2c-7.8,2.8-11.6,8.4-12.2,17.6
	c1.9-0.2,3.7-0.6,5.4-0.5c2.5,0,5.2-0.1,7.5,0.6c8.4,2.7,9.4,6.2,3.2,12.3c-6.7,6.4-14,12.1-21.1,18c-1.3,1.1-2.6,2-3.6,3.7
	c8.3,0.7,15.9-1.7,23.7-4.5c-0.5-2.4-0.8-4.4-1.3-6.5c9.9,0.2,18.7,11,16.2,19.7c-0.4,1.5-1.7,2.7-2.5,4.1c-1.3-0.9-3.1-1.5-3.9-2.7
	c-1.8-2.6-3.2-5.5-5.4-9.6c-7.7,3-15.9,5.9-23.7,9.4c-6.9,3.1-7.5,3.4-10.9-1.5c-4-5.8-3.8-9.4,0.9-13.8c5.7-5.3,11.4-10.6,17-15.9
	c1.3-1.2,2.2-2.8,3.3-4.2c-0.3-0.5-0.5-1-0.8-1.5c-2.8,1-5.5,2-8.3,2.9c-2,0.6-4.1,1.1-6.1,1.6c-0.8-3.6-1.8-7.1-2.3-10.8
	c-0.1-0.9,1.4-2.1,2.2-3.2c-4.9-3.1-11.5-2.1-15,3.4c-3.4,5.5-6.4,11.6-7.8,17.9c-2.1,9.3-2.8,19-4.1,28.5c-0.2,1.1-0.3,2.3-0.7,4.7
	c-2.7-1.6-5.2-2.5-6.9-4.2c-6-6.1-9.8-13.6-9.5-22.2c0.4-11.4,1.3-22.9,3.2-34.1c0.9-5.1,4.4-10.1,7.7-14.4
	c2.9-3.7,3.8-6.4,0.7-10.1c-1.7-2-2.9-4.5-4.4-6.7c0.3-0.4,0.5-0.8,0.8-1.2c6.5,3.2,13,6.2,19.3,9.7c1.3,0.7,2.2,3.4,2,5.2
	c-0.1,0.9-2.8,1.5-4.4,2.3c-1.9,0.9-3.8,2-5.8,2.7c-2.7,1-5.3,2.1-8.1,2.8c-4.3,1-5.9,4.3-5.9,7.8c0,3.9,1,8,2.4,11.7
	c1.4,4,1.3,7.2,0.2,11.4c-2,7.9-2.1,16.3-2.7,24.4c-0.1,1.1,1.4,3.1,2.3,3.2c1.1,0.1,2.8-1.1,3.5-2.2c1-1.7,1.5-3.7,2.1-5.6
	c3.1-9.3,5.5-18.8,9.3-27.7c3.8-9,10.4-15.7,20.1-18.7c5.8-1.8,9.6-5.2,10.8-11.3c0.9-4.3,2.2-8.5,3.4-12.7
	C503.3,325.7,503.3,322.2,496.8,321z"/>
<path class="st1" d="M391.5,263.7c5.4,5.7,10.9,11.4,16.2,17.2c2.1,2.3,1.7,4.6-1.1,6.3c-1.1,0.7-2.4,1.4-3.6,1.7
	c-10.5,3.1-21.2,4.2-32,2.1c-12.6-2.4-18.1-11.6-13.6-23.6c3.1-8.2,7.5-15.8,11.4-23.7c0.8-1.6,1.6-3.2,2.7-5.2
	c-7.6,1.6-13.3,4.3-16.9,11.2c-3.5,6.7-7.6,13.2-12.2,19.2c-4.4,5.7-9.7,10.7-14.8,15.7c-2.8,2.7-6.8,5.4-10.4,2.9
	c-2.3-1.6-2.9-5.7-3.8-9.3c4.2,3.3,7,1.2,9.1-1.6c6.1-7.8,11.9-15.8,17.4-24.7c-10.1,3.2-19.6,5.9-27.1-4.2
	c10.2-4.1,20.3-8.2,30.4-12.3c5.7-2.3,7.1-5.8,4.5-11.5c-0.8-1.8-1.7-3.7-2.4-5.6c-0.6-1.9-0.9-3.9-1.6-6.8
	c8.9,3.2,17.8,4.6,21.5,12.2c6.5,3.1,12.4,5.1,17.3,8.5c3.1,2.2,2.1,6-0.1,9.5c-5.6,9.3-11.4,18.6-16,28.5
	c-3.5,7.4-0.6,11.1,7.6,11.7c4.2,0.3,8.4,0.1,12.5-0.6c6.4-1.2,8.3-4.7,6.6-11.1c-0.6-2.1-1.5-4.1-2.2-6.1
	C391.1,264.1,391.3,263.9,391.5,263.7z"/>
<path class="st0" d="M570.2,235.2c0.8,21,2,42,2.4,63c0.4,23.6,0,47.2-0.1,70.7c0,2.2,0.6,4.7-0.2,6.5c-0.9,1.9-3.2,3.2-5,4.8
	c-0.9-1.6-2.6-3.1-2.6-4.7c-0.1-13,0-26,0.1-38.9c0.2-32-1-64.1,2.7-96c0.2-1.8,0.4-3.5,0.6-5.3
	C568.7,235.3,569.5,235.3,570.2,235.2z"/>
<path class="st0" d="M354.5,334.1c4.9-7.2,7.3-16,15.3-21.2c0.8,1.2,1.4,1.9,1.6,2.6c1,5,3.1,7.6,8.6,4.8c1.3-0.7,3.3-0.1,5.1,0.8
	C374.6,325.1,366.4,333.6,354.5,334.1z"/>
<path class="st0" d="M566.3,388.4c1.5,2,2.8,4.1,4.4,6c2.6,3.2,1.2,5.6-1.5,7.6c-2.2,1.6-4.4,1.5-4.6-1.7c-0.3-3.9-0.1-7.8-0.1-11.7
	C565.1,388.5,565.7,388.5,566.3,388.4z"/>
<path class="st0" d="M347.4,364.2c4.1,1.7,7.5,3.1,11.6,4.8c-3,4-7.3,4.3-11.6,5.2C347.4,370.7,347.4,368,347.4,364.2z"/>
<path class="st0" d="M277.5,371.9c0,7.3,0,14.6,0,22C271.1,386.3,275.7,379,277.5,371.9z"/>
<path class="st0" d="M491.6,244.9c1.5-0.7,2.6-1.6,3.9-1.8c1.8-0.2,4.6-0.6,5.4,0.4c1.1,1.3,1.7,4.2,1.1,5.9
	c-1.6,4.4-3.9,8.5-6.1,13c-2.6,0-5.2,0-9,0c1.8-2.1,2.9-3.5,4.2-4.9C496.8,251.8,496.8,251.8,491.6,244.9z"/>
<path class="st0" d="M477,229.8c1.7-1.4,3.3-2.9,5-4.2c4.3-3.1,8.6-6.3,13-9.2c1-0.7,2.4-0.9,3.7-1.3c0.1,1.5,0.7,3.4,0.1,4.4
	c-3.2,5-7.5,9-13.6,10.4c-2.4,0.5-4.9,0.9-7.3,1.4C477.6,230.8,477.3,230.3,477,229.8z"/>
<path d="M379.5,437.7"/>
</svg>
