<?xml version="1.0" encoding="UTF-8"?>
<svg width="600px" height="600px" viewBox="0 0 600 600" version="1.1" xmlns="http://www.w3.org/2000/svg" xmlns:xlink="http://www.w3.org/1999/xlink">
    <!-- Generator: Sketch 49.3 (51167) - http://www.bohemiancoding.com/sketch -->
    <title>icon copy @svg</title>
    <desc>Created with Sketch.</desc>
    <defs></defs>
    <g id="icon-copy" stroke="none" stroke-width="1" fill="none" fill-rule="evenodd">
        <g id="九章logo" transform="translate(0.000000, 8.000000)" fill-rule="nonzero">
            <g id="Group">
                <path d="M179.350301,581.842105 C166.718722,581.842105 154.087143,581.842105 141.455564,581.842105 C134.54767,581.25 127.639775,580.460526 120.73188,579.868421 C107.508196,579.078947 94.0871434,579.276316 81.0608276,577.5 C65.8634592,575.328947 61.521354,569.802632 59.5476697,554.407895 C58.7581961,547.894737 57.771354,541.184211 57.5739855,534.473684 C56.7845118,484.539474 55.0081961,434.802632 55.6003013,384.868421 C56.5871434,312.434211 50.4687224,240.592105 42.771354,168.75 C39.4160908,137.565789 42.771354,107.171053 49.0871434,76.7763158 C52.0476697,76.3815789 54.4160908,76.1842105 56.7845118,75.9868421 C101.98188,73.2236842 147.179249,69.4736842 192.376617,68.0921053 C270.929249,65.5263158 349.48188,63.1578947 427.837143,63.1578947 C453.692407,63.1578947 480.73188,66.7105263 505.205564,75 C538.363459,86.0526316 549.021354,104.605263 548.626617,135.394737 C548.23188,163.421053 548.23188,191.25 548.626617,219.276316 C549.613459,273.157895 550.995038,327.039474 552.179249,380.921053 C552.968722,418.421053 553.560828,456.118421 554.54767,493.618421 C555.139775,517.894737 543.100301,532.894737 521.587143,541.578947 C510.139775,546.315789 498.495038,547.302632 486.455564,544.539474 C480.73188,543.355263 473.429249,541.578947 472.837143,550.855263 C472.04767,562.5 464.745038,565.065789 455.073986,565.065789 C439.876617,565.065789 424.48188,564.868421 409.284512,564.868421 C396.850301,564.868421 384.021354,567.434211 373.166091,557.565789 C371.389775,555.789474 366.652933,556.184211 363.692407,556.973684 C347.902933,561.710526 331.718722,566.052632 316.521354,572.368421 C300.337143,579.078947 285.337143,579.078947 277.442407,567.236842 C268.955564,554.605263 257.508196,553.618421 245.073986,556.381579 C235.79767,558.355263 227.113459,562.302632 217.837143,565.263158 C219.021354,532.302632 220.402933,499.342105 221.389775,466.381579 C221.587143,458.289474 224.54767,454.934211 232.639775,455.723684 C243.100301,456.907895 253.363459,457.894737 264.021354,458.881579 C261.258196,447.039474 256.521354,443.486842 245.863459,445.065789 C239.54767,446.052632 233.429249,447.434211 227.113459,447.828947 C217.639775,448.421053 214.284512,444.868421 214.679249,435.592105 C215.271354,422.368421 215.073986,408.947368 216.850301,395.921053 C219.021354,379.144737 217.245038,364.934211 199.48188,356.25 C203.823986,354.276316 208.166091,354.078947 211.718722,352.5 C223.363459,347.368421 235.008196,342.039474 246.258196,335.921053 C248.823986,334.539474 251.98188,328.815789 250.995038,327.434211 C248.626617,323.486842 244.48188,320.526316 240.534512,317.960526 C238.560828,316.776316 235.205564,317.368421 232.639775,317.763158 C226.521354,318.947368 222.968722,316.776316 219.810828,311.447368 C214.48188,302.763158 207.771354,301.578947 199.679249,307.697368 C194.350301,311.644737 189.613459,316.381579 185.271354,321.315789 C178.363459,329.407895 172.245038,338.092105 165.337143,346.184211 C161.192407,351.118421 156.258196,355.855263 145.995038,348.552632 C148.560828,345.592105 152.508196,344.210526 155.666091,342.039474 C160.79767,338.486842 167.310828,335.131579 164.745038,327.236842 C162.179249,319.144737 157.639775,311.842105 148.758196,308.092105 C146.192407,323.289474 135.534512,337.894737 121.323986,346.381579 C109.087143,353.684211 107.705564,360.789474 116.98188,374.407895 C119.745038,372.631579 122.508196,371.052632 125.073986,369.078947 C136.323986,360.789474 141.455564,361.578947 148.560828,372.828947 C149.350301,374.210526 150.139775,376.184211 151.521354,376.776316 C159.810828,380.328947 161.192407,386.842105 159.218722,392.960526 C162.968722,397.302632 168.889775,402.434211 168.29767,403.421053 C165.337143,408.157895 160.600301,411.710526 156.060828,416.052632 C154.087143,408.75 152.508196,403.026316 150.929249,397.302632 C149.942407,397.5 148.955564,397.894737 147.968722,398.092105 C144.021354,415.855263 139.284512,433.618421 151.521354,450.592105 C161.389775,449.605263 171.060828,449.210526 180.534512,447.236842 C194.350301,444.473684 196.126617,438.355263 187.04767,428.289474 C191.98188,419.013158 191.784512,419.013158 189.416091,406.776316 C189.021354,405 190.205564,402.039474 191.784512,401.052632 C197.113459,397.105263 195.929249,392.368421 192.771354,389.013158 C190.008196,386.052632 185.468722,384.078947 181.323986,383.486842 C178.363459,383.092105 174.810828,385.263158 171.455564,386.447368 C173.23188,380.921053 175.402933,375.197368 179.350301,373.026316 C184.284512,370.460526 190.995038,369.868421 196.323986,371.052632 C198.889775,371.644737 201.455564,378.355263 201.652933,382.5 C202.639775,398.486842 203.626617,414.473684 202.837143,430.263158 C202.442407,436.776316 198.692407,445.855263 193.560828,448.618421 C181.126617,455.526316 166.916091,459.671053 153.29767,464.407895 C150.929249,465.197368 147.376617,463.223684 145.008196,462.434211 C140.468722,465 135.139775,469.342105 129.218722,471.118421 C111.652933,476.644737 93.889775,481.381579 74.9424066,486.710526 C84.4160908,492.631579 92.3108276,495.789474 102.573986,490.657895 C111.850301,485.921053 122.310828,483.355263 134.350301,479.013158 C135.534512,488.684211 139.087143,497.763158 136.916091,505.065789 C133.955564,514.342105 137.113459,519.078947 144.218722,526.578947 C150.534512,511.184211 156.258196,497.171053 162.968722,480.986842 C156.850301,485.526316 152.705564,488.684211 147.376617,492.631579 C145.79767,484.539474 141.850301,477.434211 150.929249,474.276316 C165.929249,469.144737 180.929249,464.605263 196.323986,460.855263 C203.429249,459.078947 209.54767,461.644737 209.350301,470.921053 C208.955564,490.263158 208.166091,509.407895 208.166091,528.75 C208.166091,542.960526 200.468722,558.157895 215.666091,572.565789 C201.455564,576.315789 190.402933,579.078947 179.350301,581.842105 Z" id="Shape" fill="#C90008"></path>
                <path d="M384.276316,105 C391.184211,111.118421 396.907895,115.657895 401.842105,121.184211 C403.618421,122.960526 404.605263,128.684211 403.618421,129.473684 C391.973684,137.960526 389.210526,148.618421 394.539474,162.631579 C371.052632,168.75 348.355263,174.671053 325.657895,180.592105 C327.828947,190.657895 334.736842,194.802632 346.973684,191.644737 C357.236842,188.881579 366.907895,184.539474 376.973684,180.789474 C379.736842,179.802632 383.289474,176.842105 385.065789,177.828947 C394.144737,182.368421 400.855263,175.855263 408.552632,174.078947 C423.75,170.723684 438.947368,166.973684 454.144737,163.618421 C456.315789,163.223684 458.684211,163.618421 460.855263,163.618421 C461.052632,164.605263 461.25,165.789474 461.447368,166.776316 C440.131579,174.473684 416.25,175.460526 396.513158,187.302632 C396.710526,188.289474 396.907895,189.276316 397.105263,190.263158 C404.013158,191.25 410.921053,192.039474 420.394737,193.223684 C413.684211,197.565789 409.342105,200.328947 403.815789,203.881579 C408.75,208.026316 412.697368,211.184211 417.236842,214.934211 C410.526316,218.486842 404.802632,221.447368 396.907895,225.592105 C396.907895,217.302632 396.907895,211.578947 396.907895,205.855263 C397.105263,195.789474 391.184211,190.657895 378.355263,191.447368 C382.105263,205.065789 385.460526,218.486842 389.802632,231.513158 C390.394737,233.684211 394.539474,234.868421 397.302632,235.855263 C399.473684,236.842105 402.039474,237.039474 404.605263,237.434211 C404.013158,240 403.223684,242.565789 402.631579,245.526316 C406.776316,244.539474 410.921053,242.960526 415.065789,242.763158 C418.026316,242.565789 421.184211,244.342105 424.144737,245.131579 C421.776316,247.105263 419.605263,250.065789 416.842105,250.855263 C398.486842,255.592105 380.131579,259.539474 361.776316,264.078947 C360,264.473684 357.631579,267.236842 357.631579,268.421053 C358.026316,270.986842 359.407895,274.539474 361.381579,275.723684 C363.947368,277.105263 367.894737,277.105263 370.855263,276.315789 C380.526316,273.75 389.802632,270.394737 399.276316,267.434211 C406.973684,265.065789 414.868421,262.697368 424.144737,259.736842 C424.144737,274.144737 423.947368,286.776316 424.144737,299.407895 C424.342105,311.644737 424.934211,324.078947 425.526316,336.315789 C426.907895,336.513158 428.486842,336.513158 429.868421,336.710526 C435.986842,311.052632 441.118421,285.197368 443.092105,256.578947 C457.5,259.342105 470.723684,262.105263 484.144737,264.276316 C487.105263,264.671053 490.263158,262.5 493.421053,261.513158 C492.236842,258.355263 491.842105,253.618421 489.473684,252.434211 C484.342105,249.671053 478.421053,247.894737 472.697368,247.302632 C463.618421,246.513158 454.342105,247.105263 443.092105,247.105263 C444.868421,242.565789 445.460526,237.434211 447.631579,236.842105 C464.013158,231.710526 469.736842,216.315789 479.407895,204.868421 C486.315789,196.578947 485.328947,189.276316 477.039474,182.171053 C472.105263,178.026316 466.184211,175.065789 459.276316,170.723684 C477.434211,152.368421 502.302632,164.013158 524.407895,155.131579 C505.263158,139.934211 484.736842,150.986842 466.381579,147.236842 C478.223684,128.684211 477.631579,126.710526 456.710526,111.907895 C462.434211,109.934211 466.776316,108.75 471.118421,106.973684 C473.684211,105.986842 477.236842,104.210526 477.631579,102.236842 C478.026316,100.065789 475.855263,96.7105263 473.881579,94.7368421 C471.907895,92.7631579 468.552632,92.1710526 465.986842,90.9868421 C462.236842,89.2105263 457.697368,88.2236842 455.131579,85.4605263 C445.657895,74.8026316 432.828947,76.1842105 419.407895,73.0263158 C423.75,82.5 427.302632,90.1973684 431.842105,100.263158 C415.263158,102.039474 401.052632,103.421053 384.276316,105 Z" id="Shape" fill="#000000"></path>
                <path d="M448.848469,335.297592 C461.480048,337.666013 461.480048,344.771276 458.914259,353.06075 C456.348469,361.350224 453.78268,369.639697 452.203732,378.126539 C449.637943,390.166013 442.335311,396.876539 430.887943,400.429171 C411.743206,406.350224 398.71689,419.573908 391.21689,437.337066 C383.71689,455.100224 378.980048,473.850224 372.861627,492.008118 C371.677416,495.758118 370.690574,499.902855 368.71689,503.06075 C367.335311,505.231803 363.980048,507.600224 361.808995,507.402855 C360.03268,507.205487 357.072153,503.258118 357.269522,501.087066 C358.453732,484.902855 358.453732,468.323908 362.598469,452.929171 C364.769522,444.442329 364.96689,438.126539 362.203732,430.429171 C359.637943,423.126539 357.46689,415.034434 357.46689,407.337066 C357.46689,400.429171 360.624785,393.916013 369.111627,391.942329 C374.637943,390.758118 379.769522,388.587066 385.098469,386.416013 C389.045837,384.837066 392.795837,382.863382 396.545837,381.087066 C399.703732,379.705487 405.03268,378.323908 405.230048,376.547592 C405.427416,373.192329 403.848469,367.863382 401.28268,366.284434 C388.848469,359.376539 376.019522,353.455487 363.190574,347.139697 C362.598469,347.929171 362.203732,348.718645 361.611627,349.508118 C364.374785,353.850224 366.940574,358.784434 370.295837,362.731803 C376.414259,370.034434 374.637943,375.56075 368.914259,382.666013 C362.401101,391.152855 355.493206,401.021276 353.71689,411.087066 C349.769522,433.192329 347.993206,455.889697 347.401101,478.389697 C346.808995,495.166013 354.308995,510.166013 366.151101,522.205487 C369.506364,525.56075 374.440574,527.337066 379.769522,530.49496 C380.558995,525.758118 380.953732,523.389697 381.151101,521.218645 C383.71689,502.468645 384.901101,483.323908 389.243206,464.968645 C392.006364,452.731803 397.927416,440.49496 404.637943,429.639697 C411.545837,418.587066 424.572153,416.613382 434.243206,422.929171 C432.664259,425.100224 429.703732,427.271276 429.901101,429.24496 C430.887943,436.350224 432.861627,443.455487 434.440574,450.56075 C438.387943,449.573908 442.53268,448.587066 446.480048,447.402855 C452.006364,445.626539 457.53268,443.652855 462.861627,441.679171 C463.453732,442.666013 463.848469,443.652855 464.440574,444.639697 C462.269522,447.402855 460.295837,450.363382 457.927416,452.929171 C446.874785,463.587066 435.624785,473.850224 424.374785,484.31075 C415.098469,492.99496 414.506364,500.100224 422.598469,511.547592 C429.308995,521.218645 430.493206,520.823908 444.111627,514.508118 C459.506364,507.402855 475.690574,501.876539 490.887943,495.955487 C495.230048,504.047592 497.993206,509.771276 501.545837,514.902855 C503.124785,517.271276 506.677416,518.455487 509.243206,520.231803 C511.019522,517.666013 513.387943,515.100224 514.177416,512.139697 C519.111627,494.968645 501.545837,473.652855 482.203732,473.258118 C482.993206,477.402855 483.78268,481.547592 484.769522,486.087066 C469.374785,491.416013 454.374785,496.152855 437.993206,494.968645 C440.164259,491.613382 442.730048,489.837066 445.098469,487.666013 C459.111627,475.823908 473.519522,464.771276 486.743206,452.139697 C499.177416,440.297592 497.006364,433.389697 480.427416,427.863382 C475.887943,426.284434 470.558995,426.679171 465.624785,426.679171 C462.072153,426.679171 458.519522,427.271276 454.96689,427.666013 C456.151101,409.508118 463.651101,398.455487 479.045837,392.929171 C485.164259,390.758118 492.072153,390.363382 498.387943,388.587066 C502.730048,387.402855 506.677416,384.837066 510.822153,383.06075 C510.624785,381.876539 510.427416,380.49496 510.427416,379.31075 C503.124785,377.337066 496.019522,374.968645 488.71689,373.784434 C478.058995,371.81075 477.072153,370.626539 479.835311,359.968645 C480.230048,358.389697 480.427416,356.613382 481.21689,355.231803 C485.558995,346.152855 482.993206,339.047592 475.098469,333.718645 C467.203732,327.99496 459.308995,327.99496 448.848469,335.297592 Z" id="Shape" fill="#000000"></path>
                <path d="M240.197368,223.223684 C239.802632,223.618421 239.407895,223.815789 239.013158,224.210526 C240.592105,228.157895 242.368421,232.105263 243.355263,236.25 C246.907895,248.881579 243.157895,255.789474 230.328947,258.157895 C222.236842,259.539474 213.75,259.934211 205.657895,259.342105 C189.473684,258.157895 183.947368,250.855263 190.657895,236.25 C199.736842,216.907895 211.184211,198.552632 222.236842,180 C226.381579,173.092105 228.552632,165.592105 222.434211,161.25 C212.763158,154.539474 201.118421,150.592105 188.289474,144.473684 C180.986842,129.473684 163.421053,126.710526 145.855263,120.394737 C147.236842,126.315789 147.828947,130.263158 149.013158,133.815789 C150.197368,137.565789 151.973684,141.118421 153.75,144.868421 C158.881579,156.118421 156.118421,163.026316 144.868421,167.565789 C124.934211,175.460526 105,183.552632 84.8684211,191.842105 C99.6710526,211.776316 118.421053,206.447368 138.355263,200.131579 C127.5,217.697368 116.052632,233.486842 104.013158,248.881579 C99.6710526,254.407895 94.3421053,258.552632 86.0526316,252.039474 C87.8289474,259.144737 89.0131579,267.236842 93.5526316,270.394737 C100.657895,275.328947 108.552632,270.197368 114.078947,264.671053 C124.342105,254.802632 134.802632,244.934211 143.289474,233.684211 C152.368421,221.842105 160.460526,209.013158 167.368421,195.789474 C174.473684,182.171053 185.723684,176.842105 200.723684,173.684211 C198.552632,177.828947 196.973684,180.789474 195.394737,183.947368 C187.894737,199.539474 179.013158,214.539474 172.894737,230.723684 C164.013158,254.407895 174.868421,272.565789 199.736842,277.302632 C221.052632,281.25 242.171053,279.078947 262.894737,273.157895 C265.460526,272.368421 267.828947,271.184211 270,269.802632 C275.328947,266.447368 276.315789,261.907895 272.171053,257.368421 C261.710526,245.723684 250.855263,234.671053 240.197368,223.223684 Z" id="Shape" fill="#000000"></path>
                <path d="M178.421053,583.026316 C189.473684,580.263158 200.526316,577.5 214.342105,573.947368 C198.947368,559.736842 206.644737,544.539474 206.842105,530.131579 C206.842105,510.789474 207.631579,491.644737 208.026316,472.302632 C208.223684,463.026316 202.105263,460.460526 195,462.236842 C179.605263,465.986842 164.605263,470.526316 149.605263,475.657895 C140.526316,478.815789 144.473684,485.921053 146.052632,494.013158 C151.381579,490.065789 155.526316,486.907895 161.644737,482.368421 C154.934211,498.552632 149.210526,512.565789 142.894737,527.960526 C135.789474,520.657895 132.631579,515.723684 135.592105,506.447368 C137.763158,499.144737 134.210526,490.263158 133.026316,480.394737 C120.986842,484.736842 110.723684,487.302632 101.25,492.039474 C90.9868421,497.171053 83.0921053,494.013158 73.6184211,488.092105 C92.5657895,482.763158 110.328947,478.026316 127.894737,472.5 C133.815789,470.526316 139.144737,466.381579 143.684211,463.815789 C146.052632,464.407895 149.605263,466.578947 151.973684,465.789474 C165.592105,461.052632 179.605263,456.907895 192.236842,450 C197.368421,447.236842 201.118421,438.157895 201.513158,431.644737 C202.5,415.855263 201.315789,399.671053 200.328947,383.881579 C200.131579,379.736842 197.565789,373.026316 195,372.434211 C189.671053,371.25 182.960526,372.039474 178.026316,374.407895 C173.881579,376.578947 171.710526,382.105263 170.131579,387.828947 C173.486842,386.842105 176.842105,384.473684 180,384.868421 C184.144737,385.460526 188.684211,387.434211 191.447368,390.394737 C194.802632,393.75 195.789474,398.486842 190.460526,402.434211 C189.078947,403.421053 187.894737,406.381579 188.092105,408.157895 C190.460526,420.592105 190.460526,420.592105 185.723684,429.671053 C194.802632,439.736842 192.828947,445.855263 179.210526,448.618421 C169.736842,450.394737 160.065789,450.789474 150.197368,451.973684 C137.960526,435 142.894737,417.236842 146.644737,399.473684 C147.631579,399.276316 148.618421,398.881579 149.605263,398.684211 C151.184211,404.407895 152.763158,410.131579 154.736842,417.434211 C159.078947,413.092105 164.013158,409.539474 166.973684,404.802632 C167.565789,403.815789 161.644737,398.684211 157.894737,394.342105 C159.868421,388.026316 158.486842,381.710526 150.197368,378.157895 C148.815789,377.565789 148.223684,375.592105 147.236842,374.210526 C140.131579,362.960526 135,362.171053 123.75,370.460526 C121.184211,372.434211 118.421053,374.013158 115.657895,375.789474 C106.381579,362.171053 107.763158,355.065789 120,347.763158 C134.210526,339.276316 144.868421,324.671053 147.434211,309.473684 C156.315789,313.223684 160.855263,320.526316 163.421053,328.618421 C165.986842,336.513158 159.473684,339.868421 154.342105,343.421053 C150.986842,345.592105 147.236842,346.973684 144.671053,349.934211 C154.934211,357.236842 159.868421,352.5 164.013158,347.565789 C170.921053,339.473684 177.039474,330.789474 183.947368,322.697368 C188.289474,317.763158 193.223684,313.026316 198.355263,309.078947 C206.447368,302.960526 213.157895,304.144737 218.486842,312.828947 C221.644737,318.157895 225.197368,320.526316 231.315789,319.144737 C233.881579,318.552632 237.236842,318.157895 239.210526,319.342105 C243.157895,321.710526 247.302632,324.868421 249.671053,328.815789 C250.657895,330.197368 247.5,335.921053 244.934211,337.302632 C233.684211,343.421053 222.039474,348.75 210.394737,353.881579 C206.842105,355.460526 202.5,355.657895 198.157895,357.631579 C215.921053,366.315789 217.697368,380.526316 215.526316,397.302632 C213.75,410.526316 214.144737,423.75 213.355263,436.973684 C212.960526,446.25 216.315789,449.802632 225.789474,449.210526 C232.105263,448.815789 238.223684,447.434211 244.539474,446.447368 C255.197368,444.868421 259.934211,448.421053 262.697368,460.263158 C252.039474,459.276316 241.578947,458.289474 231.315789,457.105263 C223.223684,456.118421 220.263158,459.671053 220.065789,467.763158 C219.276316,500.723684 217.697368,533.486842 216.513158,566.644737 C225.789474,563.486842 234.671053,559.539474 243.75,557.763158 C256.184211,555.197368 267.631579,555.986842 276.118421,568.618421 C284.013158,580.263158 299.013158,580.460526 315.197368,573.75 C330.394737,567.434211 346.381579,563.092105 362.368421,558.355263 C365.328947,557.368421 370.065789,557.171053 371.842105,558.947368 C382.5,568.815789 395.328947,566.25 407.960526,566.25 C423.157895,566.25 438.552632,566.447368 453.75,566.447368 C463.421053,566.447368 470.723684,563.881579 471.513158,552.236842 C472.105263,542.960526 479.605263,544.539474 485.131579,545.921053 C497.368421,548.684211 508.815789,547.697368 520.263158,542.960526 C541.776316,534.078947 554.013158,519.276316 553.223684,495 C552.236842,457.5 551.644737,419.802632 550.855263,382.302632 C549.671053,328.421053 548.289474,274.539474 547.302632,220.657895 C546.907895,192.631579 546.907895,164.802632 547.302632,136.776316 C547.697368,106.184211 537.039474,87.4342105 503.881579,76.3815789 C479.407895,68.2894737 452.368421,64.5394737 426.513158,64.5394737 C347.960526,64.5394737 269.407895,66.9078947 191.052632,69.4736842 C145.855263,71.0526316 100.657895,74.6052632 55.4605263,77.3684211 C53.0921053,77.5657895 50.9210526,77.7631579 47.7631579,78.1578947 C41.4473684,108.552632 38.0921053,138.947368 41.4473684,170.131579 C49.1447368,241.973684 55.2631579,313.815789 54.2763158,386.25 C53.6842105,436.184211 55.2631579,485.921053 56.25,535.855263 C56.4473684,542.565789 57.4342105,549.078947 58.2236842,555.789474 C60.1973684,571.184211 64.5394737,576.513158 79.7368421,578.881579 C92.7631579,580.855263 106.184211,580.460526 119.407895,581.25 C126.315789,581.644737 133.223684,582.434211 140.131579,583.223684 C93.5526316,583.223684 46.9736842,583.223684 0.197368421,583.223684 C0.197368421,440.723684 0.197368421,298.223684 0.197368421,155.723684 C0.789473684,162.039474 1.97368421,168.157895 1.97368421,174.473684 C1.97368421,215.723684 1.77631579,256.973684 1.57894737,298.223684 C1.57894737,303.157895 2.17105263,308.092105 2.56578947,313.223684 C3.55263158,313.223684 4.34210526,313.223684 5.32894737,313.223684 C6.11842105,309.473684 7.30263158,305.921053 7.5,302.171053 C10.4605263,258.75 12.6315789,215.328947 16.3815789,171.907895 C18.75,145.065789 14.2105263,119.013158 11.8421053,92.7631579 C11.4473684,89.2105263 11.0526316,85.4605263 10.6578947,81.9078947 C8.68421053,84.6710526 8.28947368,87.2368421 7.89473684,89.8026316 C5.32894737,108.552632 2.56578947,127.105263 0,145.855263 C0,97.8947368 0,50.1315789 0,1.97368421 C139.144737,1.97368421 278.486842,1.97368421 417.631579,1.97368421 C400.855263,3.94736842 384.078947,5.72368421 367.302632,7.89473684 C355.855263,9.47368421 344.407895,11.6447368 332.960526,13.6184211 C321.907895,15.5921053 310.855263,18.1578947 299.802632,20.3289474 C299.802632,21.5131579 299.802632,22.5 300,23.6842105 C344.407895,26.0526316 388.815789,29.0131579 433.223684,30.3947368 C465.394737,31.3815789 497.763158,29.6052632 529.934211,29.8026316 C536.644737,29.8026316 543.157895,33.1578947 549.868421,34.5394737 C554.605263,35.5263158 559.539474,35.9210526 564.276316,36.7105263 C562.894737,31.3815789 562.697368,25.2631579 559.934211,20.7236842 C557.763158,17.1710526 552.631579,14.8026316 548.289474,13.8157895 C540.592105,11.8421053 532.697368,10.6578947 524.802632,9.86842105 C497.763158,7.10526316 470.723684,4.53947368 443.684211,1.97368421 C495.592105,1.97368421 547.5,1.97368421 599.605263,1.97368421 C599.605263,195.789474 599.605263,389.605263 599.605263,583.421053 C459.473684,583.026316 318.947368,583.026316 178.421053,583.026316 Z M593.092105,167.171053 C591.710526,167.171053 590.328947,167.171053 588.947368,167.171053 C588.552632,170.723684 588.157895,174.078947 587.763158,177.631579 C580.657895,240.592105 582.828947,303.947368 582.434211,367.105263 C582.236842,392.763158 582.039474,418.421053 582.236842,443.881579 C582.236842,447.039474 585.592105,450 587.368421,453.157895 C590.723684,450 595.263158,447.631579 597.236842,443.684211 C599.013158,440.131579 597.631579,435.197368 597.631579,430.855263 C597.828947,384.276316 598.618421,337.697368 597.828947,291.315789 C597.039474,250.065789 594.671053,208.618421 593.092105,167.171053 Z M167.368421,362.368421 C190.855263,361.381579 207.236842,344.802632 227.565789,336.513158 C224.013158,334.736842 220.065789,333.75 217.5,334.934211 C206.644737,340.460526 202.5,335.328947 200.526316,325.460526 C200.328947,324.078947 198.947368,322.894737 197.368421,320.328947 C181.776316,330.789474 177.039474,348.157895 167.368421,362.368421 Z M585.394737,469.539474 C584.210526,469.736842 583.026316,469.736842 581.842105,469.934211 C581.842105,477.631579 581.447368,485.328947 582.039474,493.026316 C582.631579,499.539474 586.973684,499.539474 591.118421,496.381579 C596.447368,492.434211 599.210526,487.697368 594.078947,481.381579 C591.118421,477.631579 588.355263,473.486842 585.394737,469.539474 Z M153.355263,421.776316 C153.355263,429.276316 153.355263,434.802632 153.355263,441.513158 C161.842105,439.736842 170.328947,439.144737 176.25,431.25 C168.157895,427.894737 161.447368,425.131579 153.355263,421.776316 Z M15.3947368,436.973684 C11.8421053,451.184211 2.76315789,465.394737 15.3947368,480.394737 C15.3947368,465.789474 15.3947368,451.381579 15.3947368,436.973684 Z" id="Shape" fill="#FFFFFF"></path>
                <path d="M443.881579,0 C470.921053,2.56578947 497.960526,5.13157895 525,7.89473684 C532.894737,8.68421053 540.789474,9.86842105 548.486842,11.8421053 C552.828947,13.0263158 557.960526,15.3947368 560.131579,18.75 C562.894737,23.2894737 563.092105,29.4078947 564.473684,34.7368421 C559.539474,33.9473684 554.802632,33.5526316 550.065789,32.5657895 C543.355263,31.1842105 536.842105,27.8289474 530.131579,27.8289474 C497.960526,27.6315789 465.592105,29.4078947 433.421053,28.4210526 C389.013158,27.2368421 344.605263,24.0789474 300.197368,21.7105263 C300.197368,20.5263158 300.197368,19.5394737 300,18.3552632 C311.052632,16.1842105 322.105263,13.6184211 333.157895,11.6447368 C344.605263,9.47368421 356.052632,7.5 367.5,5.92105263 C384.276316,3.75 401.052632,1.97368421 417.828947,0 C426.513158,0 435.197368,0 443.881579,0 Z" id="Shape" fill="#C90008"></path>
                <path d="M0,144.868421 C2.56578947,126.118421 5.32894737,107.565789 7.89473684,88.8157895 C8.28947368,86.25 8.68421053,83.6842105 10.6578947,80.9210526 C11.0526316,84.4736842 11.4473684,88.2236842 11.8421053,91.7763158 C14.4078947,118.026316 18.9473684,144.078947 16.3815789,170.921053 C12.4342105,214.144737 10.4605263,257.763158 7.5,301.184211 C7.30263158,304.934211 6.11842105,308.486842 5.32894737,312.236842 C4.34210526,312.236842 3.55263158,312.236842 2.56578947,312.236842 C2.17105263,307.302632 1.57894737,302.368421 1.57894737,297.236842 C1.57894737,255.986842 1.97368421,214.736842 1.97368421,173.486842 C1.97368421,167.171053 0.789473684,161.052632 0.197368421,154.736842 C0,151.578947 0,148.223684 0,144.868421 Z" id="Shape" fill="#C90008"></path>
                <path d="M384.078947,106.776316 C400.855263,105.197368 415.263158,103.815789 431.842105,102.236842 C427.302632,92.1710526 423.75,84.4736842 419.407895,75 C432.828947,77.9605263 445.657895,76.5789474 455.131579,87.4342105 C457.697368,90.1973684 462.236842,91.1842105 465.986842,92.9605263 C468.552632,94.1447368 471.907895,94.7368421 473.881579,96.7105263 C475.855263,98.4868421 478.026316,101.842105 477.631579,104.210526 C477.236842,106.184211 473.684211,107.960526 471.118421,108.947368 C466.776316,110.723684 462.236842,111.907895 456.710526,113.881579 C477.828947,128.684211 478.223684,130.657895 466.381579,149.210526 C484.736842,152.960526 505.263158,141.907895 524.407895,157.105263 C502.302632,165.986842 477.434211,154.342105 459.276316,172.697368 C466.184211,177.039474 472.105263,180 477.039474,184.144737 C485.328947,191.25 486.315789,198.552632 479.407895,206.842105 C469.736842,218.289474 464.013158,233.684211 447.631579,238.815789 C445.657895,239.407895 444.868421,244.736842 443.092105,249.078947 C454.144737,249.078947 463.421053,248.486842 472.697368,249.276316 C478.421053,249.868421 484.342105,251.644737 489.473684,254.407895 C491.644737,255.592105 492.236842,260.328947 493.421053,263.486842 C490.263158,264.473684 487.105263,266.644737 484.144737,266.25 C470.921053,264.078947 457.697368,261.315789 443.092105,258.552632 C441.118421,287.171053 435.986842,313.026316 429.868421,338.684211 C428.486842,338.486842 426.907895,338.486842 425.526316,338.289474 C425.131579,326.052632 424.342105,313.618421 424.144737,301.381579 C423.947368,288.75 424.144737,276.118421 424.144737,261.710526 C414.868421,264.473684 406.973684,266.842105 399.276316,269.407895 C389.802632,272.368421 380.328947,275.723684 370.855263,278.289474 C367.894737,279.078947 363.947368,279.078947 361.381579,277.697368 C359.407895,276.710526 358.026316,273.157895 357.631579,270.394737 C357.434211,269.013158 360,266.447368 361.776316,266.052632 C380.131579,261.513158 398.684211,257.368421 416.842105,252.828947 C419.605263,252.039474 421.776316,249.078947 424.144737,247.105263 C421.184211,246.315789 418.026316,244.539474 415.065789,244.736842 C410.921053,244.934211 406.776316,246.513158 402.631579,247.5 C403.421053,244.736842 404.013158,241.973684 404.605263,239.407895 C402.236842,238.815789 399.671053,238.618421 397.302632,237.828947 C394.539474,236.644737 390.394737,235.460526 389.802632,233.486842 C385.657895,220.460526 382.302632,207.039474 378.355263,193.421053 C391.184211,192.434211 396.907895,197.763158 396.907895,207.828947 C396.907895,213.552632 396.907895,219.473684 396.907895,227.565789 C405,223.421053 410.526316,220.460526 417.236842,216.907895 C412.697368,213.157895 408.75,210 403.815789,205.855263 C409.144737,202.302632 413.684211,199.539474 420.394737,195.197368 C410.921053,194.013158 404.013158,193.026316 397.105263,192.236842 C396.907895,191.25 396.710526,190.263158 396.513158,189.276316 C416.25,177.434211 440.131579,176.447368 461.447368,168.75 C461.25,167.763158 461.052632,166.578947 460.855263,165.592105 C458.684211,165.592105 456.315789,165.197368 454.144737,165.592105 C438.947368,168.947368 423.75,172.697368 408.552632,176.052632 C400.855263,177.828947 393.947368,184.144737 385.065789,179.802632 C383.289474,178.815789 379.736842,181.776316 376.973684,182.763158 C367.105263,186.513158 357.236842,191.052632 346.973684,193.618421 C334.736842,196.776316 327.828947,192.828947 325.657895,182.565789 C348.355263,176.644737 371.052632,170.723684 394.539474,164.605263 C389.210526,150.789474 392.171053,139.934211 403.618421,131.447368 C404.605263,130.657895 403.618421,125.131579 401.842105,123.157895 C396.710526,117.434211 390.789474,112.894737 384.078947,106.776316 Z M437.763158,186.513158 C448.026316,200.131579 447.828947,200.131579 436.776316,211.381579 C434.210526,213.947368 432.039474,216.907895 428.486842,221.052632 C435.986842,221.052632 441.118421,221.052632 446.25,221.052632 C450.394737,212.368421 455.131579,204.078947 458.289474,195.394737 C459.473684,192.039474 458.486842,186.513158 456.118421,183.75 C454.539474,181.776316 449.013158,182.565789 445.460526,182.960526 C443.092105,183.157895 440.723684,184.934211 437.763158,186.513158 Z M408.947368,156.710526 C409.539474,157.697368 410.131579,158.684211 410.723684,159.473684 C415.460526,158.486842 420.394737,157.894737 425.131579,156.710526 C437.171053,153.947368 445.460526,146.25 451.973684,136.184211 C453.355263,134.210526 451.973684,130.460526 451.776316,127.5 C449.407895,128.289474 446.644737,128.684211 444.473684,130.065789 C435.789474,135.986842 427.302632,142.105263 418.815789,148.223684 C415.460526,150.986842 412.302632,153.947368 408.947368,156.710526 Z" id="Shape" fill="#FFFFFF"></path>
                <path d="M448.848469,335.228691 C459.111627,328.123428 467.203732,327.92606 475.098469,333.649744 C482.993206,339.17606 485.558995,346.083954 481.21689,355.162902 C480.427416,356.544481 480.230048,358.320796 479.835311,359.899744 C477.072153,370.557639 478.058995,371.741849 488.71689,373.715533 C496.019522,375.097112 503.124785,377.465533 510.427416,379.241849 C510.624785,380.42606 510.822153,381.807639 510.822153,382.991849 C506.677416,384.965533 502.730048,387.333954 498.387943,388.518165 C492.072153,390.294481 485.164259,390.689217 479.045837,392.86027 C463.651101,398.386586 456.151101,409.439217 454.96689,427.597112 C458.71689,427.202375 462.269522,426.412902 465.624785,426.61027 C470.558995,426.61027 475.887943,426.412902 480.427416,427.794481 C497.006364,433.123428 498.980048,440.031323 486.743206,452.070796 C473.519522,464.702375 459.111627,475.952375 445.098469,487.597112 C442.53268,489.768165 439.96689,491.544481 437.993206,494.899744 C454.374785,496.281323 469.374785,491.544481 484.769522,486.018165 C483.78268,481.281323 483.190574,477.333954 482.203732,473.189217 C501.743206,473.583954 519.111627,494.899744 514.177416,512.070796 C513.387943,515.031323 510.822153,517.399744 509.243206,520.162902 C506.677416,518.386586 503.124785,517.202375 501.545837,514.833954 C497.993206,509.702375 495.230048,503.978691 490.887943,495.886586 C475.690574,501.807639 459.506364,507.531323 444.111627,514.439217 C430.493206,520.557639 429.308995,521.149744 422.598469,511.478691 C414.703732,500.031323 415.098469,492.92606 424.374785,484.241849 C435.624785,473.781323 446.874785,463.320796 457.927416,452.86027 C460.493206,450.491849 462.269522,447.333954 464.440574,444.570796 C463.848469,443.583954 463.453732,442.597112 462.861627,441.61027 C457.335311,443.583954 452.006364,445.557639 446.480048,447.333954 C442.53268,448.518165 438.387943,449.505007 434.440574,450.491849 C432.861627,443.386586 430.887943,436.478691 429.901101,429.17606 C429.703732,427.399744 432.664259,425.031323 434.243206,422.86027 C424.572153,416.741849 411.545837,418.715533 404.637943,429.570796 C397.927416,440.42606 392.006364,452.465533 389.243206,464.899744 C385.098469,483.255007 383.71689,502.399744 381.151101,521.149744 C380.756364,523.320796 380.558995,525.689217 379.769522,530.42606 C374.440574,527.268165 369.506364,525.491849 366.151101,522.136586 C354.308995,510.097112 346.808995,495.294481 347.401101,478.320796 C348.190574,455.820796 349.96689,433.123428 353.71689,411.018165 C355.493206,400.952375 362.401101,391.083954 368.914259,382.597112 C374.637943,375.294481 376.414259,369.965533 370.295837,362.662902 C366.940574,358.715533 364.572153,353.781323 361.611627,349.439217 C362.203732,348.649744 362.598469,347.86027 363.190574,347.070796 C376.019522,353.386586 388.848469,359.307639 401.28268,366.215533 C403.848469,367.597112 405.624785,372.92606 405.230048,376.478691 C405.03268,378.255007 399.703732,379.439217 396.545837,381.018165 C392.795837,382.794481 389.045837,384.965533 385.098469,386.347112 C379.769522,388.320796 374.637943,390.491849 369.111627,391.873428 C360.624785,393.847112 357.46689,400.36027 357.46689,407.268165 C357.46689,414.965533 359.440574,423.057639 362.203732,430.36027 C364.96689,438.255007 364.769522,444.570796 362.598469,452.86027 C358.651101,468.452375 358.453732,485.031323 357.269522,501.018165 C357.072153,503.189217 360.03268,507.136586 361.808995,507.333954 C363.980048,507.531323 367.335311,505.162902 368.71689,502.991849 C370.690574,499.636586 371.677416,495.689217 372.861627,491.939217 C378.980048,473.583954 383.71689,454.833954 391.21689,437.268165 C398.71689,419.505007 411.743206,406.281323 430.887943,400.36027 C442.335311,396.807639 449.835311,390.097112 452.203732,378.057639 C453.980048,369.570796 456.545837,361.281323 458.914259,352.991849 C461.677416,344.505007 461.677416,337.597112 448.848469,335.228691 Z" id="Shape" fill="#FFFFFF"></path>
                <path d="M240.197368,223.421053 C250.855263,234.671053 261.710526,245.921053 272.171053,257.368421 C276.315789,261.907895 275.526316,266.447368 270,269.802632 C267.828947,271.184211 265.263158,272.565789 262.894737,273.157895 C242.171053,279.276316 221.052632,281.447368 199.736842,277.302632 C174.868421,272.565789 164.013158,254.407895 172.894737,230.723684 C179.013158,214.539474 187.697368,199.539474 195.394737,183.947368 C196.973684,180.789474 198.552632,177.631579 200.723684,173.684211 C185.723684,176.842105 174.473684,182.171053 167.368421,195.789474 C160.460526,209.013158 152.368421,221.842105 143.289474,233.684211 C134.605263,244.934211 124.144737,254.802632 114.078947,264.671053 C108.552632,270 100.657895,275.328947 93.5526316,270.394737 C89.0131579,267.236842 87.8289474,259.144737 86.0526316,252.039474 C94.3421053,258.552632 99.8684211,254.407895 104.013158,248.881579 C116.052632,233.486842 127.5,217.697368 138.355263,200.131579 C118.421053,206.447368 99.6710526,211.776316 84.8684211,191.842105 C105,183.75 124.934211,175.657895 144.868421,167.565789 C156.118421,163.026316 158.881579,156.118421 153.75,144.868421 C152.171053,141.315789 150.394737,137.565789 149.013158,133.815789 C147.828947,130.065789 147.236842,126.118421 145.855263,120.394737 C163.421053,126.710526 180.986842,129.473684 188.289474,144.473684 C201.118421,150.592105 212.763158,154.539474 222.434211,161.25 C228.552632,165.592105 226.578947,173.092105 222.236842,180 C211.184211,198.355263 199.736842,216.710526 190.657895,236.25 C183.75,250.855263 189.473684,258.157895 205.657895,259.342105 C213.947368,259.934211 222.236842,259.539474 230.328947,258.157895 C242.960526,255.789474 246.710526,248.881579 243.355263,236.25 C242.171053,232.105263 240.394737,228.157895 239.013158,224.210526 C239.407895,224.210526 239.802632,223.815789 240.197368,223.421053 Z" id="Shape" fill="#FFFFFF"></path>
                <path d="M593.173858,165.789474 C594.752805,207.236842 597.121226,248.684211 597.9107,290.131579 C598.700174,336.710526 597.9107,383.289474 597.713332,429.671053 C597.713332,434.013158 598.897542,438.947368 597.318595,442.5 C595.542279,446.25 591.002805,448.815789 587.450174,451.973684 C585.673858,448.815789 582.318595,445.855263 582.318595,442.697368 C582.121226,417.039474 582.318595,391.381579 582.515963,365.921053 C582.9107,302.763158 580.542279,239.407895 587.844911,176.447368 C588.239647,172.894737 588.634384,169.539474 589.029121,165.986842 C590.213332,165.986842 591.792279,165.986842 593.173858,165.789474 Z" id="Shape" fill="#C90008"></path>
                <path d="M167.763158,361.578947 C177.434211,347.368421 182.171053,330 197.960526,319.736842 C199.539474,322.105263 200.723684,323.486842 201.118421,324.868421 C203.092105,334.736842 207.236842,339.868421 218.092105,334.342105 C220.657895,332.960526 224.605263,334.144737 228.157895,335.921053 C207.434211,343.815789 191.25,360.592105 167.763158,361.578947 Z" id="Shape" fill="#C90008"></path>
                <path d="M585.918367,469.736842 C588.878894,473.684211 591.444683,477.828947 594.602578,481.578947 C599.734157,487.894737 596.970999,492.631579 591.642052,496.578947 C587.299946,499.736842 582.957841,499.539474 582.563104,493.223684 C581.970999,485.526316 582.365736,477.828947 582.365736,470.131579 C583.549946,469.934211 584.734157,469.934211 585.918367,469.736842 Z" id="Shape" fill="#C90008"></path>
                <path d="M153.947368,420.394737 C162.039474,423.75 168.75,426.513158 176.842105,429.868421 C170.921053,437.763158 162.434211,438.355263 153.947368,440.131579 C153.947368,433.223684 153.947368,427.894737 153.947368,420.394737 Z" id="Shape" fill="#C90008"></path>
                <path d="M16.358237,436.184211 C16.358237,450.592105 16.358237,465 16.358237,479.605263 C3.72665806,464.605263 12.8056054,450.197368 16.358237,436.184211 Z" id="Shape" fill="#C90008"></path>
                <path d="M437.565789,185.625 C440.526316,184.243421 442.697368,182.467105 445.263158,182.072368 C448.815789,181.677632 454.342105,180.888158 455.921053,182.861842 C458.092105,185.427632 459.276316,191.151316 458.092105,194.506579 C454.934211,203.190789 450.394737,211.282895 446.052632,220.164474 C440.921053,220.164474 435.789474,220.164474 428.289474,220.164474 C431.842105,216.019737 434.013158,213.256579 436.578947,210.493421 C447.828947,199.243421 447.828947,199.243421 437.565789,185.625 Z" id="Shape" fill="#C90008"></path>
                <path d="M408.552632,155.328947 C411.907895,152.565789 415.065789,149.605263 418.421053,147.039474 C426.907895,140.921053 435.394737,134.605263 444.078947,128.881579 C446.052632,127.5 448.815789,127.105263 451.381579,126.315789 C451.578947,129.276316 452.763158,133.026316 451.578947,135 C445.263158,144.868421 436.776316,152.763158 424.736842,155.526316 C420,156.513158 415.065789,157.302632 410.328947,158.289474 C409.736842,157.302632 409.144737,156.315789 408.552632,155.328947 Z" id="Shape" fill="#C90008"></path>
            </g>
        </g>
    </g>
</svg>