<svg 
 xmlns="http://www.w3.org/2000/svg"
 xmlns:xlink="http://www.w3.org/1999/xlink"
 width="162px" height="215px">
<path fill-rule="evenodd"  stroke="rgb(71, 84, 186)" stroke-width="8px" stroke-linecap="round" stroke-linejoin="round" fill="none"
 d="M131.852,120.675 C132.024,123.756 130.990,126.452 128.800,128.632 C126.610,130.811 123.904,131.835 120.817,131.655 L105.396,130.754 C102.099,130.561 99.204,131.753 97.002,134.209 L86.705,145.697 C84.644,147.997 82.001,149.174 78.908,149.170 C75.815,149.166 73.176,147.981 71.120,145.676 L60.855,134.160 C58.660,131.697 55.768,130.498 52.471,130.681 L37.048,131.540 C33.959,131.712 31.256,130.680 29.072,128.495 C26.888,126.310 25.861,123.611 26.042,120.530 L26.945,105.145 C27.138,101.856 25.944,98.968 23.482,96.771 L11.967,86.498 C9.662,84.441 8.482,81.805 8.486,78.719 C8.491,75.633 9.678,73.000 11.989,70.949 L23.531,60.707 C25.999,58.518 27.202,55.633 27.018,52.343 L26.157,36.955 C25.984,33.874 27.019,31.178 29.209,28.999 C31.399,26.820 34.105,25.795 37.192,25.975 L52.613,26.876 C55.910,27.069 58.805,25.877 61.007,23.421 L71.304,11.933 C73.365,9.633 76.008,8.456 79.101,8.460 C82.194,8.465 84.833,9.649 86.889,11.955 L97.154,23.471 C99.349,25.933 102.241,27.132 105.538,26.949 L120.961,26.090 C124.050,25.918 126.752,26.950 128.937,29.135 C131.121,31.320 132.148,34.019 131.967,37.100 L131.064,52.485 C130.871,55.774 132.065,58.662 134.527,60.859 L146.041,71.132 C148.347,73.189 149.527,75.826 149.523,78.911 C149.518,81.997 148.331,84.630 146.020,86.681 L134.477,96.923 C132.010,99.113 130.807,101.998 130.991,105.287 L131.852,120.675 Z"/>
<path fill-rule="evenodd"  stroke="rgb(71, 84, 186)" stroke-width="8px" stroke-linecap="round" stroke-linejoin="round" fill="none"
 d="M79.125,38.000 C101.717,38.000 120.031,56.272 120.031,78.812 C120.031,101.353 101.717,119.625 79.125,119.625 C56.533,119.625 38.219,101.353 38.219,78.812 C38.219,56.272 56.533,38.000 79.125,38.000 Z"/>
<path fill-rule="evenodd"  stroke="rgb(71, 84, 186)" stroke-width="8px" stroke-linecap="butt" stroke-linejoin="miter" fill="none"
 d="M114.797,131.296 L114.797,195.546 C114.797,198.182 113.450,200.426 111.120,201.670 C108.791,202.913 106.173,202.787 103.975,201.325 L82.984,185.048 C80.589,183.455 77.656,183.455 75.261,185.048 L54.270,201.325 C52.072,202.787 49.453,202.913 47.124,201.670 C44.795,200.426 43.448,198.182 43.448,195.546 L43.448,131.296 "/>
<path fill-rule="evenodd"  stroke="rgb(71, 84, 186)" stroke-width="8px" stroke-linecap="butt" stroke-linejoin="miter" fill="none"
 d="M57.000,133.000 L57.000,196.832 L57.000,196.844 "/>
<path fill-rule="evenodd"  stroke="rgb(71, 84, 186)" stroke-width="8px" stroke-linecap="butt" stroke-linejoin="miter" fill="none"
 d="M101.000,133.000 L101.000,133.000 L101.000,197.000 L101.000,197.000 L101.000,133.000 Z"/>
<text font-family="Open Sans" fill="rgb(72, 81, 185)" font-weight="bold" font-size="48px" x="66px" y="98px">&#51;</text>
</svg>