<?xml version="1.0" encoding="utf-8"?>
<!-- Generator: Adobe Illustrator 19.0.0, SVG Export Plug-In . SVG Version: 6.00 Build 0)  -->
<svg version="1.1" id="图层_1" xmlns="http://www.w3.org/2000/svg" xmlns:xlink="http://www.w3.org/1999/xlink" x="0px" y="0px"
	 viewBox="0 0 244 146" style="enable-background:new 0 0 244 146;" xml:space="preserve">
<style type="text/css">
	.st0{fill:#00AD5E;}
	.st1{fill:#FFFFFF;}
	.st2{opacity:0.4;fill:#00AD5E;}
</style>
<g id="XMLID_68_">
	<path id="XMLID_78_" class="st0" d="M63.5,191.1c-31.3,0-56.8,25.4-56.8,56.8s25.4,56.8,56.8,56.8s56.8-25.4,56.8-56.8
		S94.8,191.1,63.5,191.1z M49.9,280.1C49.9,280.1,49.8,280.1,49.9,280.1C49.8,280.1,49.8,280.1,49.9,280.1L49.9,280.1
		c-0.4,0.4-0.8,0.5-1.3,0.5c-0.7,0-1.4-0.5-1.6-1.1l0,0l-7.5-20l-5.2-13.8l-4.6-12.2l0,0c-0.3-0.8-0.5-1.7-0.5-2.6
		c0-4.1,3.3-7.5,7.5-7.5c3.2,0,5.9,2,7,4.9l0,0l11.4,30.2l0,0.2c0.8,2.1,1.2,4.4,1.2,6.8C56.3,271.2,53.8,276.4,49.9,280.1z
		 M76.7,280.1C76.7,280.1,76.7,280.1,76.7,280.1C76.7,280.1,76.7,280.1,76.7,280.1L76.7,280.1c-0.4,0.4-0.8,0.5-1.3,0.5
		c-0.7,0-1.4-0.5-1.6-1.1l0,0l-7.5-20l-5.2-13.8l-4.6-12.2l0,0c-0.3-0.8-0.5-1.7-0.5-2.6c0-4.1,3.3-7.5,7.5-7.5c3.2,0,5.9,2,7,4.9
		l0,0l11.4,30.2l0,0.2c0.8,2.1,1.2,4.4,1.2,6.8C83.2,271.2,80.7,276.4,76.7,280.1z M101.2,238.5l-4.5,7.2l-0.9-0.2l-0.6-2.6
		c-4.1,1-8.6-0.7-10.9-4.5c-2.8-4.7-1.2-10.8,3.4-13.5c4.7-2.8,10.8-1.2,13.5,3.4C103.3,231.6,103.1,235.5,101.2,238.5L101.2,238.5z
		"/>
	<circle id="XMLID_70_" class="st1" cx="96.3" cy="245.5" r="0.5"/>
</g>
<g id="XMLID_1_">
	<circle id="XMLID_4050_" class="st0" cx="49.2" cy="70.7" r="33.6"/>
	<g id="XMLID_2241_">
		<g id="XMLID_2853_">
			<circle id="XMLID_2912_" class="st0" cx="225.3" cy="64.1" r="2.2"/>
			<g id="XMLID_2854_">
				<path id="XMLID_2907_" class="st0" d="M177,75.2c0.4-1.5,1.5-2.2,3.1-2c1.5,0.4,2.2,1.4,2,3.1c-1.3,7.5-2.5,10.2-6.5,16.8
					c-0.5,0.7-1,1.1-1.6,1.3c-0.6,0.2-1.3,0.1-1.9-0.2c-1.4-0.9-1.7-2.1-1-3.5C174.3,85.2,175.4,82.9,177,75.2z M175.2,55.5
					c3,2.1,5.3,4,7.1,5.9c0.5,0.6,0.8,1.1,0.9,1.8c0,0.7-0.2,1.2-0.6,1.7c-1.1,1.1-2.3,1.1-3.5,0.1c-0.1-0.1-1.3-1.1-3.5-3
					c-2.3-1.9-3.4-2.9-3.5-3c-1.1-0.9-1.1-2-0.2-3.2c0.5-0.5,1-0.7,1.6-0.8C174,54.9,174.6,55.1,175.2,55.5z M178.8,41.5
					c2.1,1.5,3.9,3,5.4,4.7c0.5,0.6,0.8,1.2,0.9,1.9c0.1,0.7-0.1,1.3-0.4,1.8c-1.1,1.2-2.2,1.3-3.3,0.4c-1.4-1.4-3.4-3-6.1-5
					c-1-0.9-1-2.1,0.1-3.5C176.3,40.7,177.5,40.6,178.8,41.5z M217.8,40.2c1.7-0.5,2.9,0.1,3.5,1.7c0.3,1.6-0.4,2.7-2.1,3.3
					c-6.2,1.9-12,3.2-23.5,4.1c-1.6,0.1-2.4,1-2.4,2.6c0.1,12.3-0.4,21.5-1.7,27.7c-1.2,6.3-3.8,11.3-7.2,15.2
					c-0.5,0.6-1.1,0.9-1.8,1c-0.7,0.1-1.4,0-2.1-0.4c-0.7-0.4-1.1-1-1.2-1.6c-0.1-0.6,0-1.3,0.5-1.9c3.5-4.3,6-9.1,7.1-14.9
					c0.6-3.1,1-6.8,1.3-11.1c0.2-4.3,0.3-9.6,0.2-16c-0.2-3.7,1.5-5.6,5.1-5.6C205.7,43.6,211.8,42.2,217.8,40.2z"/>
				<path id="XMLID_2906_" class="st0" d="M201.6,63.4c-2.3,0-4.1-1.8-4.1-4.1c0-2.3,1.8-4.1,4.1-4.1c2.1,0,3.9,1.7,4.1,3.8
					l-3.6,0.4l-0.8,1.8L201.6,63.4z"/>
				<path id="XMLID_2904_" class="st0" d="M197.5,59.9c9.2-0.2,18-2.2,26.1-5.7l-1.8-4c-6.4,2.8-13.3,4.5-20.5,5.1L197.5,59.9z"/>
				<g id="XMLID_2869_">
					<polyline id="XMLID_2903_" class="st0" points="108.6,94.4 108.6,71.4 113,65 113,94.4 					"/>
					<path id="XMLID_2900_" class="st0" d="M161.7,91.6c-3.2-3.8-5.8-7.7-7.5-11.5c2.9-7.8,4.3-17.6,4.2-28.9h2v-4.4h-10.8
						c0-0.1,0-0.2,0-0.2c-0.2,0.1-0.4,0.3-0.8,0.3c-0.2,0-0.4,0-0.5-0.1c-0.7,3-1.5,6-2.2,9.1c-0.3,1.2-0.7,2.6-1.1,3.9
						c0.1,0.6,0.1,1.2,0.1,1.8l0,0c0,0,0-0.1,0.1-0.1c0.4,7.3,1.8,13.6,4.2,18.9c-2.6,5-5.5,9-8.7,12.1c-0.6,0.6-0.9,1.2-1,1.9
						c0,0.7,0.2,1.3,0.7,1.7c0.5,0.4,1.2,0.6,1.9,0.5c0.7-0.1,1.4-0.4,2-1c2.8-2.9,5.3-6.4,7.7-10.6c1.6,3.1,3.7,6.4,6.5,10.1
						c0.5,0.6,1,1,1.7,1.1c0.7,0.1,1.2-0.1,1.8-0.6c0.5-0.5,0.7-1.1,0.7-1.8C162.5,92.9,162.2,92.3,161.7,91.6z M151.6,74.6
						c-1.7-5.2-2.9-12-3.5-20.4l0.7-3h5.3C154.1,61,153.3,69,151.6,74.6z"/>
					<path id="XMLID_2899_" class="st2" d="M138.5,64.4c0,1.9-0.1,0.8,0,2.2c-0.1,1.4,0,0.4,0,2.2"/>
					<path id="XMLID_2898_" class="st0" d="M125.1,55.9c0,0.2,0,0.3,0,0.5c0,1.7-1.4,3.1-3.1,3.1c-1.7,0-3.1-1.4-3.1-3.1
						s1.4-3.1,3.1-3.1"/>
					<circle id="XMLID_2897_" class="st0" cx="121.2" cy="45.9" r="2.2"/>
					<path id="XMLID_2896_" class="st0" d="M135.8,53.3c1.7,0,3.1,1.4,3.1,3.1s-1.4,3.1-3.1,3.1s-3.1-1.4-3.1-3.1
						c0-0.3,0-0.5,0.1-0.7"/>
					<circle id="XMLID_2895_" class="st0" cx="119.5" cy="66.5" r="2.2"/>
					<circle id="XMLID_2894_" class="st0" cx="110.8" cy="94.5" r="2.2"/>
					<path id="XMLID_2891_" class="st0" d="M114.9,41.6c0-1.2-1-2.2-2.2-2.2c-0.3,0-0.5,0.1-0.8,0.2c-0.1,0.1-0.3,0.1-0.4,0.2
						c-0.1,0.1-0.2,0.1-0.2,0.2c-0.2,0.1-0.3,0.3-0.4,0.5c0,0,0,0,0,0c-0.1,0.2-0.2,0.4-0.3,0.7l0,0l0,0.2c-1,4.9-3.4,9-6.7,12.4
						l0,0c-0.2,0.2-0.3,0.4-0.4,0.7c-0.1,0.3-0.2,0.5-0.2,0.8c0,1.2,1,2.2,2.2,2.2c0.6,0,1.1-0.2,1.4-0.6c0.1-0.1,0.2-0.2,0.2-0.2
						c3.7-3.9,6.4-8.7,7.6-14.2c0.1-0.4,0.1-0.5,0.1-0.8C114.9,41.7,114.9,41.6,114.9,41.6z M107.6,55.7L107.6,55.7L107.6,55.7
						L107.6,55.7z"/>
					<path id="XMLID_2888_" class="st0" d="M114.9,58.8c0-1.2-1-2.2-2.2-2.2c-0.3,0-0.5,0.1-0.8,0.2c-0.1,0.1-0.3,0.1-0.4,0.2
						c-0.1,0.1-0.2,0.1-0.2,0.2c-0.2,0.1-0.3,0.3-0.4,0.5c0,0,0,0,0,0c-0.1,0.2-0.2,0.4-0.3,0.7l0,0l0,0.2c-1,4.9-3.4,9-6.7,12.4
						l0,0c-0.2,0.2-0.3,0.4-0.4,0.7c-0.1,0.3-0.2,0.5-0.2,0.8c0,1.2,1,2.2,2.2,2.2c0.6,0,1.1-0.2,1.4-0.6c0.1-0.1,0.2-0.2,0.2-0.2
						c3.7-3.9,6.4-8.7,7.6-14.2c0.1-0.4,0.1-0.5,0.1-0.8C114.9,58.9,114.9,58.8,114.9,58.8z M107.6,72.9L107.6,72.9L107.6,72.9
						L107.6,72.9z"/>
					<path id="XMLID_2886_" class="st0" d="M121.1,92.1L121.1,92.1L121.1,92.1L121.1,92.1z"/>
					<circle id="XMLID_2885_" class="st0" cx="138.4" cy="66.5" r="2.2"/>
					<circle id="XMLID_2884_" class="st0" cx="160.3" cy="49" r="2.2"/>
					<circle id="XMLID_2883_" class="st0" cx="128.9" cy="41.5" r="2.2"/>
					<circle id="XMLID_2882_" class="st0" cx="136.7" cy="45.9" r="2.2"/>
					<rect id="XMLID_2881_" x="126.7" y="41.5" class="st0" width="4.4" height="14.7"/>
					<rect id="XMLID_2880_" x="122" y="55.1" class="st0" width="13.7" height="4.4"/>
					<rect id="XMLID_2879_" x="119" y="45.9" class="st0" width="4.4" height="10.5"/>
					<rect id="XMLID_2878_" x="134.4" y="45.9" class="st0" width="4.4" height="10.5"/>
					<path id="XMLID_2877_" class="st0" d="M134.4,53.5c0,0.9-0.7,1.6-1.6,1.6v0.1h1.7L134.4,53.5L134.4,53.5z"/>
					<path id="XMLID_2876_" class="st0" d="M123.4,53.5c0,0.9,0.7,1.6,1.6,1.6v0.1h-1.7v-1.7H123.4z"/>
					<rect id="XMLID_2875_" x="119.5" y="64.3" class="st0" width="19" height="4.4"/>
					<g id="XMLID_2870_">
						<circle id="XMLID_2874_" class="st0" cx="148.1" cy="41.5" r="2.2"/>
						<circle id="XMLID_2873_" class="st0" cx="142.2" cy="62.8" r="2.2"/>
						<path id="XMLID_2871_" class="st0" d="M144.1,63.9c3.9-6.5,6.2-14.2,6.2-22.4h-4.4c0,7.4-2,14.2-5.6,20.1L144.1,63.9z"/>
					</g>
				</g>
				<circle id="XMLID_2868_" class="st0" cx="199.7" cy="94.5" r="2.2"/>
				<circle id="XMLID_2867_" class="st0" cx="222.6" cy="52.2" r="2.2"/>
				<circle id="XMLID_2866_" class="st0" cx="224.5" cy="93.7" r="2.2"/>
				<path id="XMLID_2864_" class="st0" d="M210.1,72.1c6-1.3,11.1-3.3,16.3-6.1l-2.1-3.9c-4.7,2.5-9.8,4.4-15.1,5.6"/>
				<circle id="XMLID_2861_" class="st0" cx="199.7" cy="60.8" r="2.2"/>
				<path id="XMLID_2859_" class="st0" d="M202,61.1c0-0.8,0.6-1.5,1.5-1.6l0.1-0.1v-0.2l-2.1,0.3L202,61.1"/>
				<rect id="XMLID_2857_" x="197.5" y="59.2" class="st0" width="4.4" height="35.4"/>
				<path id="XMLID_2855_" class="st0" d="M207.4,56.4c0,14.4,7,28.2,15.4,38.6l3.5-2.8c-7.8-9.7-14.4-22.5-14.4-35.9H207.4z"/>
			</g>
		</g>
		<g id="XMLID_2813_">
			<path id="XMLID_2852_" class="st0" d="M122.9,79.6c-1.7,0-3-1.4-3-3c0-1.7,1.4-3,3-3c1.7,0,3,1.4,3,3c0,0.2,0,0.5-0.1,0.7"/>
			<path id="XMLID_2851_" class="st0" d="M131.3,77.2c0-0.2-0.1-0.4-0.1-0.6c0-1.7,1.4-3,3-3c1.7,0,3,1.4,3,3c0,1.7-1.4,3-3,3"/>
			<path id="XMLID_2825_" class="st0" d="M124.1,78.4c0-0.4,0-0.8-0.2-1.1c-0.2-0.6-0.6-1-1-1.3c-0.2-0.1-0.5-0.2-0.8-0.2
				c-0.3,0-0.6,0-0.8,0.1c-0.8,0.2-1.4-0.1-1.4,0.7c0,1.2,0,2.4,0,3.7c0,1.2-0.1,2.4-0.3,3.5c-0.4,2.3-1.1,4.5-2,6.7
				c-0.2,0.5-0.5,1-0.8,1.5c-0.1,0.2-0.1,0.4-0.2,0.7c0,0.3,0,0.5,0.1,0.8c0.3,1.2,1.5,1.8,2.7,1.5c0.3-0.1,0.5-0.2,0.7-0.4
				c0.7-0.6,1.1-1.6,1.4-2.4c0.2-0.5,0.5-1.1,0.7-1.6c0.4-1.1,0.8-2.2,1.1-3.4c0.3-1.1,0.5-2.3,0.6-3.4c0.1-1.1,0.2-2.3,0.2-3.5
				c0-0.3,0-0.7,0-1C124.1,78.9,124.1,78.7,124.1,78.4z M121,92.7L121,92.7L121,92.7L121,92.7z"/>
			<path id="XMLID_2822_" class="st0" d="M137.3,76.6v16.7c0,1.1-1,2-2.2,2h0c-1.2,0-2.2-0.9-2.2-2V76.6"/>
			<rect id="XMLID_2816_" x="122.8" y="73.6" class="st0" width="11.5" height="4.3"/>
			<path id="XMLID_2815_" class="st0" d="M124.1,79.5c0-0.9,0.7-1.6,1.6-1.6v-0.2H124v1.8H124.1z"/>
			<path id="XMLID_2814_" class="st0" d="M131.4,77.9c0.9,0,1.6,0.7,1.6,1.6h0.1v-1.6L131.4,77.9L131.4,77.9z"/>
		</g>
	</g>
	<g id="XMLID_3888_">
		<path id="XMLID_15_" class="st1" d="M41.1,89.8c2.4-2.2,3.8-5.3,3.8-8.7c0-1.4-0.3-2.8-0.7-4.1l0-0.1l-6.8-17.9l0,0
			c-0.6-1.7-2.2-2.9-4.1-2.9c-2.4,0-4.4,2-4.4,4.4c0,0.5,0.1,1.1,0.3,1.5l0,0l2.7,7.2l3.1,8.2l4.5,11.9l0,0c0.2,0.4,0.5,0.7,1,0.7
			C40.6,90.1,40.9,90,41.1,89.8L41.1,89.8C41.1,89.8,41.1,89.8,41.1,89.8C41.1,89.8,41.1,89.8,41.1,89.8z"/>
		<path id="XMLID_16_" class="st1" d="M57,89.8c2.4-2.2,3.8-5.3,3.8-8.7c0-1.4-0.3-2.8-0.7-4.1l0-0.1l-6.8-17.9l0,0
			c-0.6-1.7-2.2-2.9-4.1-2.9c-2.4,0-4.4,2-4.4,4.4c0,0.5,0.1,1.1,0.3,1.5l0,0l2.7,7.2l3.1,8.2l4.5,11.9l0,0c0.2,0.4,0.5,0.7,1,0.7
			C56.5,90.1,56.8,90,57,89.8L57,89.8C57,89.8,57,89.8,57,89.8C57,89.8,57,89.8,57,89.8z"/>
		<g id="XMLID_3889_">
			<path id="XMLID_17_" class="st1" d="M71.6,59.1c-1.7-2.8-5.2-3.7-8-2c-2.8,1.7-3.7,5.2-2,8c1.4,2.3,4,3.3,6.4,2.7l0.3,1.6
				l0.6,0.1l2.7-4.3l0,0C72.7,63.4,72.8,61.1,71.6,59.1z"/>
			<circle id="XMLID_3890_" class="st1" cx="68.6" cy="69.3" r="0.3"/>
		</g>
	</g>
</g>
</svg>
