<?xml version="1.0" encoding="UTF-8" standalone="no"?>
<svg width="2880px" height="1027px" viewBox="0 0 2880 1027" version="1.1" xmlns="http://www.w3.org/2000/svg" xmlns:xlink="http://www.w3.org/1999/xlink">
    <!-- Generator: Sketch 41.1 (35376) - http://www.bohemiancoding.com/sketch -->
    <title>全彩版_标准标志@1x</title>
    <desc>Created with Sketch.</desc>
    <defs>
        <polygon id="path-1" points="-1.57106533e-13 999.360798 2876.83302 999.360798 2876.83302 0.420222478 -1.57106533e-13 0.420222478 -1.57106533e-13 999.35828 829.387562 999.35828 829.387562 0.51764921 -0.00102491103 0.51764921 -0.00102491103 999.35828"></polygon>
        <polygon id="path-3" points="829.387562 0.420222478 0 0.420222478 0 999.257837 829.387562 999.257837 829.387562 0.420222478"></polygon>
    </defs>
    <g id="页面-1" stroke="none" stroke-width="1" fill="none" fill-rule="evenodd">
        <g id="全彩版_标准标志">
            <g id="Page-1" transform="translate(0.000000, 15.000000)">
                <g id="Group-3" transform="translate(0.000000, 0.224104)">
                    <mask id="mask-2" fill="white">
                        <use xlink:href="#path-1"></use>
                    </mask>
                    <g id="Clip-2"></g>
                    <path d="M-0.00102491103,559.862407 C6.00495374,547.880942 17.4122135,538.420812 30.5003274,535.981471 C30.5003274,535.981471 102.438833,522.647095 152.085523,513.022975 L152.085523,980.997076 L42.3790463,998.748913 C23.6744199,1001.78271 7.51157295,993.255273 -0.00102491103,978.362998 L-0.00102491103,559.862407 Z M199.528655,973.310079 L727.070861,887.912672 C765.894491,881.629834 793.638833,844.762998 790.020897,805.49782 C790.020897,805.49782 786.372214,791.507486 789.631431,771.705783 C792.880399,751.914329 808.940754,741.039791 811.902747,699.560758 C814.198548,667.45986 803.590719,663.165392 806.562961,628.850639 C809.524954,594.556385 824.027445,589.042246 827.604384,544.457666 C831.181324,499.873086 814.270292,488.957551 817.51926,458.209565 C820.757979,427.461579 826.702463,409.965975 826.702463,409.965975 C839.319117,357.571406 806.265737,320.243351 752.908868,326.577436 L577.09563,347.465568 C550.683673,350.601863 530.933637,331.589358 532.97321,304.961602 L547.731929,112.571452 C553.256199,40.477674 499.981324,-8.99583583 428.750007,2.06318987 L437.943459,0.63853318 C411.080541,4.81000997 386.687658,30.1361013 383.028726,57.1225838 C383.028726,57.1225838 341.950292,461.18187 199.528655,503.111874 L199.528655,973.310079 Z" id="Fill-1" fill="#EE0000" mask="url(#mask-2)"></path>
                </g>
                <g id="Group-6" transform="translate(0.000000, 0.224104)">
                    <mask id="mask-4" fill="white">
                        <use xlink:href="#path-3"></use>
                    </mask>
                    <g id="Clip-5"></g>
                    <path d="M-0.00102491103,559.761964 C6.00495374,547.780499 17.4122135,538.310119 30.5003274,535.870779 C30.5003274,535.870779 102.438833,522.546651 152.085523,512.922532 L152.085523,980.886383 L42.3790463,998.64847 C23.6744199,1001.68227 7.51157295,993.154829 -0.00102491103,978.262555 L-0.00102491103,559.761964 Z M199.528655,973.209636 L727.070861,887.812229 C765.894491,881.52939 793.638833,844.662555 790.020897,805.397376 C790.020897,805.397376 786.372214,791.396793 789.631431,771.605339 C792.880399,751.813886 808.940754,740.929099 811.902747,699.460315 C814.198548,667.359417 803.590719,663.054699 806.562961,628.750196 C809.524954,594.455942 824.027445,588.931554 827.604384,544.357223 C831.181324,499.772643 814.270292,488.857108 817.51926,458.109122 C820.757979,427.361135 826.702463,409.865531 826.702463,409.865531 C839.319117,357.470963 806.265737,320.142908 752.908868,326.476993 L577.09563,347.365125 C550.683673,350.501419 530.933637,331.488914 532.97321,304.861158 L547.731929,112.471009 C553.256199,40.3669812 499.981324,-9.10652858 428.750007,1.96274645 L437.943459,0.52784043 C411.080541,4.70956655 386.687658,30.0356578 383.028726,57.0221404 C383.028726,57.0221404 341.950292,461.081427 199.528655,503.011431 L199.528655,973.209636 Z" id="Fill-4" fill="#EE0000" mask="url(#mask-4)"></path>
                </g>
                <path d="M2758.18112,553.450071 L2150.70611,553.450071 C2149.5787,553.450071 2148.65628,554.362262 2148.65628,555.499937 L2148.65628,562.910202 L2148.65628,633.394835 L2148.65628,788.836155 C2148.65628,791.101257 2150.49088,792.935886 2152.76618,792.935886 L2226.54952,792.935886 C2228.82483,792.935886 2230.64917,791.101257 2230.64917,788.836155 L2230.64917,629.284855 C2230.64917,627.019753 2232.48376,625.185123 2234.75906,625.185123 L2674.14867,625.185123 C2676.40347,625.185123 2678.23806,627.019753 2678.23806,629.284855 L2678.23806,778.576577 C2678.23806,780.841679 2680.0829,782.676308 2682.34796,782.676308 L2756.14155,782.676308 C2758.39636,782.676308 2760.23095,780.841679 2760.23095,778.576577 L2760.23095,633.394835 L2760.23095,562.910202 L2760.23095,555.499937 C2760.23095,554.362262 2759.31878,553.450071 2758.18112,553.450071" id="Fill-7" fill="#2C3A46"></path>
                <path d="M1901.89973,181.762265 L1445.04564,181.762265 C1442.14514,181.762265 1440.19781,178.769461 1441.29446,176.073887 C1462.14115,124.253281 1473.03596,77.0858703 1475.61873,67.9537185 C1475.95695,66.754547 1475.12678,65.6168715 1473.89688,65.4528822 L1400.62599,55.7467679 C1399.59083,55.6135267 1398.64791,56.1977384 1398.39169,57.2021726 C1396.09589,66.037094 1384.34016,119.241359 1358.77888,179.220431 C1358.12293,180.737332 1356.61631,181.762265 1354.97646,181.762265 L1073.11567,181.762265 C1070.85062,181.762265 1069.00578,183.596895 1069.00578,185.861996 L1069.00578,249.407834 C1069.00578,251.662687 1070.85062,253.507566 1073.11567,253.507566 L1311.38699,253.507566 C1314.49247,253.507566 1316.53204,256.7976 1315.04592,259.523922 C1260.27468,360.490059 1179.16322,480.95042 1044.6129,571.615982 C1042.34784,573.153381 1042.36834,576.269177 1044.38742,578.124305 C1064.89589,596.911325 1076.16991,609.548747 1095.18201,627.700308 C1096.46315,628.919979 1098.43098,628.766239 1099.95809,627.864298 C1253.46927,537.321728 1342.16507,374.67513 1401.00521,255.741919 C1401.6919,254.348011 1403.08578,253.507566 1404.6334,253.507566 L1901.89973,253.507566 C1904.16478,253.507566 1905.98912,251.662687 1905.98912,249.407834 L1905.98912,185.861996 C1905.98912,183.596895 1904.16478,181.762265 1901.89973,181.762265" id="Fill-9" fill="#2C3A46"></path>
                <path d="M2057.50787,867.956873 C2387.72396,814.086401 2417.63086,698.181867 2422.71442,675.551349 C2423.12438,673.696221 2424.77449,672.435554 2426.69107,672.435554 L2495.94431,672.425304 C2498.51684,672.425304 2500.43342,674.741652 2499.97221,677.273237 C2493.833,711.044775 2459.45748,875.582374 2096.51599,937.990536 C2094.82488,938.287767 2093.30801,937.232086 2092.3446,935.807429 C2077.76011,913.976359 2066.48609,892.422021 2054.2794,873.6555 C2052.76253,871.349401 2054.78161,870.934303 2057.50787,870.493582" id="Fill-11" fill="#2C3A46"></path>
                <path d="M2428.26739,404.018958 C2427.89842,401.446377 2425.23365,399.857731 2422.79436,400.759672 L2343.9787,425.993519 C2341.31394,426.977455 2338.46468,424.999334 2338.46468,422.150021 L2338.46468,344.695843 C2338.46468,342.430742 2340.30952,340.596112 2342.57458,340.596112 L2424.7007,340.596112 C2426.976,340.596112 2428.81059,338.761482 2428.81059,336.496381 L2428.81059,283.21012 C2428.81059,280.945019 2426.976,279.110389 2424.7007,279.110389 L2301.54739,279.110389 C2299.28233,279.110389 2297.44774,277.275759 2297.44774,275.010657 L2297.44774,201.194992 C2297.44774,198.92989 2299.28233,197.09526 2301.54739,197.09526 L2404.19223,197.09526 C2406.45728,197.09526 2408.30212,195.260631 2408.30212,192.995529 L2408.30212,139.709269 C2408.30212,137.444167 2406.45728,135.609537 2404.19223,135.609537 L2301.54739,135.609537 C2299.28233,135.609537 2297.44774,133.774908 2297.44774,131.509806 L2297.44774,64.1922148 C2297.44774,61.9271132 2295.61315,60.0924833 2293.3481,60.0924833 L2229.80362,60.0924833 C2227.53856,60.0924833 2225.70397,61.9271132 2225.70397,64.1922148 L2225.70397,131.509806 C2225.70397,133.774908 2223.86938,135.609537 2221.60433,135.609537 L2182.09401,135.609537 C2179.19351,135.609537 2177.24618,132.66798 2178.30184,129.972407 C2185.75294,110.918904 2189.34013,96.6005923 2190.50853,91.4246812 C2190.775,90.2460084 2189.94483,89.1698289 2188.74568,89.016089 L2132.5908,82.0260468 C2130.58198,81.7800629 2128.69614,82.968985 2128.16319,84.9163575 C2123.92006,100.013619 2103.86255,163.108486 2053.7444,208.359273 C2051.82781,210.101659 2051.88931,213.104712 2053.98013,214.631862 C2063.71678,221.775644 2088.44789,238.697286 2096.84191,245.062119 C2098.44077,246.27154 2100.68532,246.10755 2102.15095,244.723891 C2114.37814,233.193396 2124.95522,210.829361 2134.18967,198.683906 C2134.95835,197.679472 2136.12675,197.09526 2137.39764,197.09526 L2221.60433,197.09526 C2223.86938,197.09526 2225.70397,198.92989 2225.70397,201.194992 L2225.70397,275.010657 C2225.70397,277.275759 2223.86938,279.110389 2221.60433,279.110389 L2047.16447,279.110389 C2044.90967,279.110389 2043.06483,280.945019 2043.06483,283.21012 L2043.06483,336.496381 C2043.06483,338.761482 2044.90967,340.596112 2047.16447,340.596112 L2143.97757,340.596112 C2146.22212,340.596112 2148.07721,342.379495 2148.08746,344.624098 C2148.1592,381.449936 2135.93201,455.59358 2042.39863,489.744344 C2039.18041,490.923016 2038.57572,495.186737 2041.44547,497.011118 C2055.16902,505.733297 2077.19436,519.11892 2093.4597,529.511739 C2094.68959,530.300937 2096.23721,530.536672 2097.57984,529.96271 C2212.19564,480.817178 2219.19579,387.517539 2215.81358,345.023822 C2215.6291,342.61523 2217.49443,340.596112 2219.89273,340.596112 L2262.63152,340.596112 C2264.89657,340.596112 2266.72091,342.430742 2266.72091,344.695843 L2266.72091,451.575843 C2266.72091,453.297731 2265.655,454.83513 2264.04589,455.429591 L2251.43949,460.062288 C2249.70739,460.697746 2248.62098,462.419633 2248.77472,464.254263 L2253.66354,521.537761 C2253.89927,524.274332 2256.70753,526.016718 2259.25956,525.002035 L2433.19721,460.195529 C2434.96006,459.498575 2436.01572,457.674194 2435.73899,455.798567 L2428.26739,404.018958 Z" id="Fill-13" fill="#2C3A46"></path>
                <path d="M1353.69224,695.524216 L1353.69224,607.513231 C1353.69224,605.248129 1355.52683,603.413499 1357.79189,603.413499 L1711.75516,603.413499 C1714.00996,603.413499 1715.84456,605.248129 1715.84456,607.513231 L1715.84456,695.524216 C1715.84456,697.789318 1714.00996,699.623948 1711.75516,699.623948 L1357.79189,699.623948 C1355.52683,699.623948 1353.69224,697.789318 1353.69224,695.524216 M1715.84456,435.836974 L1715.84456,527.578716 C1715.84456,529.833568 1714.00996,531.678447 1711.75516,531.678447 L1357.79189,531.678447 C1355.52683,531.678447 1353.69224,529.833568 1353.69224,527.578716 L1353.69224,435.836974 C1353.69224,433.571873 1355.52683,431.737243 1357.79189,431.737243 L1711.75516,431.737243 C1714.00996,431.737243 1715.84456,433.571873 1715.84456,435.836974 M1789.15644,359.991942 L1772.75786,359.991942 L1715.84456,359.991942 L1353.69224,359.991942 L1284.24427,359.991942 L1271.69936,359.991942 L1271.69936,936.660173 C1271.69936,938.925275 1273.53395,940.759905 1275.799,940.759905 L1349.5926,940.759905 C1351.85765,940.759905 1353.69224,938.925275 1353.69224,936.660173 L1353.69224,775.458731 C1353.69224,773.203879 1355.52683,771.359 1357.79189,771.359 L1711.75516,771.359 C1714.00996,771.359 1715.84456,773.203879 1715.84456,775.458731 L1715.84456,847.972732 C1715.84456,862.127055 1704.3758,873.596054 1690.22178,873.596054 L1587.00299,873.596054 C1584.24598,873.596054 1582.27815,876.260879 1583.08783,878.894957 L1601.08527,937.859345 C1601.59772,939.581232 1603.19658,940.759905 1605.00043,940.759905 L1736.36327,940.759905 L1742.02078,940.759905 C1770.31858,940.759905 1793.26633,917.811658 1793.26633,889.513261 L1793.26633,883.855632 L1793.26633,364.091673 C1793.26633,361.826572 1791.43174,359.991942 1789.15644,359.991942" id="Fill-15" fill="#2C3A46"></path>
                <path d="M2827.34212,940.777329 C2808.18653,932.003903 2640.73657,861.099047 2451.25102,833.979323 C2448.19678,833.538602 2446.72091,829.787348 2448.78098,827.491498 C2459.67579,815.40754 2479.89728,797.194483 2491.03806,784.444318 C2492.08347,783.234897 2493.41586,782.291959 2495.00447,782.507194 C2712.26511,811.502545 2844.8886,861.160543 2873.76034,875.386611 C2876.08689,876.534536 2876.70184,879.496592 2875.11322,881.536209 L2829.77116,940.14187 C2829.19721,940.900321 2828.2133,941.177053 2827.34212,940.777329" id="Fill-17" fill="#2C3A46"></path>
                <path d="M2873.59328,407.19215 L2818.67855,395.415672 C2816.3315,394.913455 2814.0562,396.51235 2813.74873,398.879945 L2808.78816,436.402737 C2807.1073,449.142653 2796.233,458.664279 2783.38061,458.664279 L2772.0041,458.664279 C2757.85008,458.664279 2746.38132,447.19528 2746.38132,433.040957 L2746.38132,344.619998 C2746.38132,342.344647 2748.21591,340.520267 2750.47072,340.520267 L2855.42161,340.520267 C2857.67641,340.520267 2859.52125,338.675388 2859.52125,336.410286 L2859.52125,283.124026 C2859.52125,280.858924 2857.67641,279.024295 2855.42161,279.024295 L2701.49022,279.024295 C2699.22517,279.024295 2697.39058,277.189665 2697.39058,274.924563 L2697.39058,201.119147 C2697.39058,198.843796 2699.22517,197.019415 2701.49022,197.019415 L2814.39442,197.019415 C2816.65947,197.019415 2818.49406,195.174536 2818.49406,192.919684 L2818.49406,139.623175 C2818.49406,137.358073 2816.65947,135.523443 2814.39442,135.523443 L2701.49022,135.523443 C2699.22517,135.523443 2697.39058,133.688813 2697.39058,131.423712 L2697.39058,64.1061204 C2697.39058,61.8410188 2695.55599,60.006389 2693.29093,60.006389 L2629.74645,60.006389 C2627.4814,60.006389 2625.6468,61.8410188 2625.6468,64.1061204 L2625.6468,131.423712 C2625.6468,133.688813 2623.81221,135.523443 2621.54716,135.523443 L2571.78773,135.523443 C2568.88723,135.523443 2566.92965,132.592135 2567.99556,129.886312 C2575.43641,110.83281 2579.03385,96.5144979 2580.192,91.3385869 C2580.45848,90.1599141 2579.6283,89.0837346 2578.42915,88.9299946 L2522.27428,81.9399524 C2520.26545,81.6939685 2518.38986,82.8828907 2517.84666,84.8405125 C2513.60353,99.9275244 2493.54602,163.022392 2443.42787,208.273178 C2441.51129,210.015564 2441.58303,213.018618 2443.67385,214.556017 C2453.40026,221.68955 2478.13136,238.621441 2486.52538,244.976025 C2488.13449,246.185445 2490.3688,246.021456 2491.83442,244.648046 C2504.06161,233.107302 2514.64894,210.743267 2523.87314,198.597812 C2524.64182,197.593378 2525.81022,197.019415 2527.08111,197.019415 L2621.54716,197.019415 C2623.81221,197.019415 2625.6468,198.843796 2625.6468,201.119147 L2625.6468,274.924563 C2625.6468,277.189665 2623.81221,279.024295 2621.54716,279.024295 L2447.1073,279.024295 C2444.84225,279.024295 2443.00766,280.858924 2443.00766,283.124026 L2443.00766,336.410286 C2443.00766,338.675388 2444.84225,340.520267 2447.1073,340.520267 L2533.87627,340.520267 C2536.13107,340.520267 2537.99641,342.262653 2538.00666,344.507256 C2538.10915,379.477965 2535.90559,458.121065 2443.6841,491.615871 C2440.45563,492.794544 2439.86118,497.078763 2442.76168,498.903144 C2456.40325,507.492081 2486.17691,525.131176 2493.88424,530.542822 C2495.24737,530.72731 2496.39527,530.881049 2497.75841,531.065537 C2605.35357,492.179584 2611.73876,392.07439 2612.57919,344.507256 C2612.62019,342.262653 2614.42403,340.520267 2616.66858,340.520267 L2664.8599,340.520267 C2667.1147,340.520267 2668.95954,342.344647 2668.95954,344.619998 L2668.95954,458.664279 L2668.95954,481.571529 C2668.95954,500.348299 2684.18972,515.568552 2702.96609,515.568552 L2788.05421,515.568552 L2798.30332,515.568552 L2829.07115,515.568552 C2849.81535,515.568552 2867.21833,499.958825 2869.45264,479.347425 L2876.8115,411.640359 C2877.03698,409.549496 2875.65335,407.632871 2873.59328,407.19215" id="Fill-19" fill="#2C3A46"></path>
            </g>
        </g>
    </g>
</svg>